<svg id="svg" version="1.1" xmlns="http://www.w3.org/2000/svg" xmlns:xlink="http://www.w3.org/1999/xlink" width="400" height="184.82384823848238" viewBox="0, 0, 400,184.82384823848238"><g id="svgg"><path id="path0" d="M153.277 4.406 C 152.988 4.590,153.169 5.128,154.807 8.965 C 154.938 9.270,155.132 9.727,155.238 9.982 C 155.345 10.236,155.608 10.860,155.823 11.368 C 156.332 12.576,156.453 12.869,156.850 13.863 C 157.141 14.593,157.498 15.459,158.031 16.728 C 158.117 16.932,158.576 18.055,159.052 19.224 C 159.528 20.393,160.027 21.599,160.160 21.904 C 160.388 22.425,160.898 23.663,162.959 28.697 C 163.427 29.841,163.880 30.943,163.965 31.146 C 164.050 31.349,164.425 32.264,164.798 33.179 C 165.172 34.094,165.675 35.282,165.918 35.818 C 166.160 36.355,166.359 36.841,166.359 36.899 C 166.359 36.997,166.561 37.490,167.184 38.909 C 167.318 39.214,167.607 39.921,167.827 40.481 C 168.047 41.040,168.297 41.664,168.382 41.867 C 168.468 42.070,168.930 43.193,169.409 44.362 C 169.887 45.531,170.349 46.654,170.434 46.858 C 170.519 47.061,170.893 47.976,171.265 48.891 C 172.059 50.844,172.158 51.084,172.527 51.941 C 172.681 52.297,173.231 53.628,173.749 54.898 C 174.268 56.169,174.763 57.375,174.850 57.579 C 174.936 57.782,175.399 58.905,175.878 60.074 C 176.357 61.243,176.819 62.366,176.904 62.569 C 176.989 62.773,177.364 63.688,177.738 64.603 C 178.610 66.740,178.914 67.473,179.118 67.930 C 179.208 68.133,179.710 69.339,180.233 70.610 C 180.756 71.881,181.216 72.955,181.256 72.996 C 181.355 73.100,182.070 72.440,182.070 72.245 C 182.070 72.084,182.642 70.814,184.032 67.886 C 184.478 66.947,184.843 66.145,184.843 66.103 C 184.843 66.061,185.342 64.976,185.952 63.693 C 186.562 62.411,187.061 61.320,187.061 61.270 C 187.061 61.221,187.507 60.245,188.052 59.102 C 188.597 57.959,189.229 56.608,189.457 56.100 C 189.684 55.591,190.200 54.469,190.604 53.604 C 191.349 52.010,191.521 51.637,192.662 49.168 C 194.801 44.540,195.438 43.155,196.008 41.899 C 196.571 40.656,196.785 40.638,197.363 41.786 C 197.776 42.607,199.552 46.390,200.178 47.782 C 200.361 48.189,200.843 49.228,201.250 50.092 C 201.657 50.957,202.172 52.079,202.395 52.588 C 202.617 53.096,203.037 54.011,203.328 54.621 C 203.619 55.231,204.103 56.271,204.403 56.932 C 204.703 57.592,205.249 58.778,205.617 59.566 C 205.984 60.354,206.584 61.643,206.950 62.431 C 207.316 63.219,207.848 64.362,208.133 64.972 C 208.418 65.582,208.857 66.539,209.110 67.098 C 209.363 67.657,209.839 68.697,210.167 69.409 C 211.518 72.336,211.805 72.962,212.202 73.845 C 212.430 74.353,213.028 75.642,213.531 76.710 C 214.034 77.777,214.596 78.983,214.779 79.390 C 214.962 79.797,215.496 80.946,215.966 81.944 C 216.436 82.943,216.821 83.797,216.821 83.842 C 216.821 83.887,217.205 84.734,217.674 85.724 C 218.144 86.713,218.677 87.856,218.859 88.262 C 219.206 89.037,220.426 91.677,221.165 93.253 C 221.999 95.033,223.821 98.984,224.531 100.555 C 224.784 101.114,225.223 102.070,225.507 102.680 C 225.791 103.290,226.282 104.351,226.598 105.037 C 226.913 105.723,227.412 106.805,227.705 107.440 C 227.998 108.075,228.446 109.053,228.700 109.612 C 229.770 111.967,230.133 112.756,230.955 114.510 C 231.431 115.527,231.970 116.691,232.153 117.098 C 232.337 117.505,232.871 118.654,233.341 119.652 C 233.811 120.651,234.196 121.498,234.196 121.536 C 234.196 121.574,234.519 122.296,234.914 123.141 C 235.309 123.985,235.839 125.134,236.092 125.693 C 236.346 126.252,236.945 127.542,237.424 128.558 C 237.903 129.575,238.445 130.739,238.627 131.146 C 238.809 131.553,239.342 132.695,239.812 133.685 C 240.281 134.675,240.665 135.528,240.665 135.582 C 240.665 135.636,241.030 136.448,241.476 137.387 C 241.922 138.326,242.513 139.593,242.789 140.203 C 243.066 140.813,243.544 141.832,243.853 142.468 L 244.413 143.623 319.665 143.577 L 394.917 143.530 394.963 74.005 L 395.010 4.479 394.594 4.368 C 393.959 4.198,153.546 4.236,153.277 4.406 M244.917 46.963 C 244.917 47.071,244.095 48.839,243.090 50.891 C 242.085 52.942,240.620 55.952,239.833 57.579 C 239.047 59.205,237.427 62.532,236.233 64.972 C 235.039 67.412,233.457 70.656,232.718 72.181 C 231.978 73.706,230.400 76.950,229.211 79.390 C 228.021 81.830,226.642 84.669,226.147 85.700 C 225.083 87.910,224.995 87.922,224.096 85.974 C 223.435 84.539,223.309 84.263,222.472 82.394 C 221.975 81.284,221.324 79.849,220.606 78.281 C 220.373 77.773,219.999 76.941,219.774 76.433 C 219.550 75.924,219.168 75.084,218.925 74.566 C 218.683 74.048,218.484 73.545,218.484 73.448 C 218.484 73.351,218.387 73.175,218.268 73.056 C 218.150 72.937,217.947 72.532,217.817 72.156 C 217.558 71.402,217.443 71.725,219.593 67.190 C 220.075 66.174,220.678 64.884,220.934 64.325 C 221.190 63.766,221.628 62.810,221.907 62.200 C 222.186 61.590,222.849 60.176,223.381 59.057 C 223.913 57.939,224.536 56.608,224.765 56.100 C 225.396 54.703,226.186 53.001,227.299 50.647 C 228.790 47.494,228.910 47.248,229.088 46.996 C 229.304 46.689,244.917 46.656,244.917 46.963 M296.556 47.181 C 296.702 47.724,296.702 59.116,296.556 59.658 L 296.445 60.074 284.652 60.074 C 278.165 60.074,272.727 60.124,272.566 60.186 C 272.312 60.284,272.076 67.475,272.320 67.694 C 272.345 67.717,276.234 67.779,280.961 67.833 L 289.556 67.930 289.605 73.823 C 289.640 78.017,289.594 79.788,289.444 79.969 C 289.272 80.176,287.707 80.222,280.754 80.222 L 272.274 80.222 272.274 85.026 L 272.274 89.831 284.889 89.879 L 297.505 89.926 297.505 96.488 L 297.505 103.050 277.542 103.050 L 257.579 103.050 257.531 75.139 C 257.505 59.787,257.523 47.123,257.571 46.996 C 257.641 46.813,261.708 46.765,277.052 46.765 L 296.445 46.765 296.556 47.181 M333.523 47.104 C 334.833 47.317,335.070 47.379,337.246 48.071 C 343.426 50.036,348.047 54.494,349.783 60.166 C 349.939 60.675,350.165 61.423,350.285 61.830 C 350.666 63.117,350.736 68.495,350.390 69.847 C 350.226 70.487,350.092 71.166,350.092 71.358 C 350.092 71.550,349.975 71.980,349.831 72.314 C 349.687 72.647,349.432 73.253,349.266 73.660 C 348.128 76.439,345.517 79.711,342.987 81.527 C 341.785 82.391,341.660 82.135,346.624 88.953 C 346.753 89.129,347.856 90.693,349.076 92.428 C 350.980 95.136,354.222 99.690,354.666 100.278 C 355.584 101.498,356.377 102.809,356.285 102.957 C 356.151 103.173,340.504 103.216,340.190 103.001 C 340.011 102.878,338.636 101.057,336.877 98.614 C 336.511 98.105,335.197 96.293,333.956 94.587 C 332.716 92.880,330.910 90.387,329.945 89.047 C 327.267 85.330,327.634 85.582,324.899 85.582 C 323.633 85.582,322.338 85.634,322.021 85.697 L 321.445 85.813 321.397 94.431 L 321.349 103.050 314.094 103.098 L 306.839 103.147 306.839 74.950 L 306.839 46.753 319.547 46.825 C 327.688 46.871,332.711 46.971,333.523 47.104 M321.486 66.220 L 321.534 72.736 326.340 72.736 L 331.146 72.736 332.315 72.102 C 336.115 70.042,336.891 64.476,333.808 61.393 C 332.277 59.862,331.560 59.704,326.147 59.704 L 321.437 59.704 321.486 66.220 " stroke="none" fill="#ec052d" fill-rule="evenodd"></path><path id="path1" d="M4.459 4.502 C 4.306 4.686,4.263 22.998,4.297 74.141 L 4.344 143.530 116.774 143.577 C 181.044 143.603,229.205 143.554,229.205 143.461 C 229.205 143.372,228.741 142.312,228.174 141.104 C 227.606 139.897,226.909 138.410,226.625 137.800 C 226.341 137.190,225.757 135.943,225.327 135.028 C 224.897 134.113,224.272 132.782,223.938 132.070 C 223.604 131.359,222.997 130.069,222.590 129.205 C 222.182 128.341,221.508 126.906,221.091 126.017 C 219.227 122.040,218.767 121.063,218.021 119.501 C 216.993 117.345,215.622 114.434,214.975 113.031 C 214.694 112.421,214.079 111.111,213.609 110.120 C 213.139 109.129,212.370 107.507,211.900 106.516 C 211.429 105.524,210.798 104.173,210.497 103.512 C 210.196 102.851,209.632 101.645,209.245 100.832 C 208.051 98.323,206.636 95.323,206.282 94.547 C 205.973 93.869,204.779 91.335,203.234 88.078 C 201.541 84.506,200.731 82.786,200.186 81.608 C 199.857 80.896,199.273 79.649,198.888 78.835 C 198.503 78.022,197.931 76.795,197.617 76.109 C 196.828 74.383,196.716 74.451,195.184 77.588 C 193.628 80.775,190.372 87.426,187.111 94.085 C 182.308 103.889,179.938 108.575,179.755 108.632 C 179.651 108.664,179.292 107.962,178.958 107.072 C 178.623 106.181,178.240 105.203,178.106 104.898 C 177.972 104.593,177.594 103.678,177.268 102.865 C 176.941 102.052,176.557 101.166,176.414 100.896 C 176.272 100.626,176.155 100.314,176.155 100.203 C 176.155 100.092,175.916 99.481,175.624 98.845 C 175.331 98.210,174.826 97.024,174.501 96.211 C 173.952 94.835,173.595 93.975,173.194 93.068 C 173.105 92.865,172.732 91.950,172.365 91.035 C 171.999 90.120,171.574 89.080,171.420 88.725 C 171.067 87.910,170.983 87.707,170.153 85.675 C 169.779 84.760,169.349 83.720,169.198 83.364 C 168.847 82.542,168.747 82.299,168.021 80.499 C 167.693 79.686,167.316 78.771,167.183 78.466 C 167.049 78.161,166.804 77.579,166.637 77.172 C 166.470 76.765,166.261 76.266,166.173 76.063 C 166.084 75.860,165.587 74.653,165.069 73.383 C 164.550 72.112,164.055 70.906,163.968 70.702 C 163.881 70.499,163.435 69.418,162.978 68.299 C 162.306 66.657,159.820 60.669,159.141 59.057 C 159.056 58.854,158.680 57.939,158.307 57.024 C 157.434 54.886,157.130 54.154,156.927 53.697 C 156.836 53.494,156.339 52.287,155.823 51.017 C 155.306 49.746,154.795 48.498,154.686 48.244 C 154.578 47.990,154.383 47.532,154.253 47.227 C 154.123 46.922,153.747 46.007,153.418 45.194 C 152.592 43.158,152.324 42.511,152.034 41.867 C 151.897 41.562,151.395 40.356,150.919 39.187 C 150.443 38.018,149.984 36.895,149.898 36.691 C 149.365 35.422,149.008 34.556,148.717 33.826 C 148.257 32.675,148.134 32.381,147.700 31.387 C 147.491 30.910,147.320 30.475,147.320 30.422 C 147.320 30.368,147.121 29.885,146.879 29.349 C 146.637 28.812,146.133 27.625,145.760 26.710 C 145.386 25.795,145.011 24.880,144.926 24.677 C 144.841 24.473,144.379 23.350,143.900 22.181 C 143.421 21.012,142.958 19.889,142.872 19.686 C 142.785 19.482,142.290 18.276,141.771 17.006 C 141.253 15.735,140.703 14.404,140.550 14.048 C 140.180 13.192,140.081 12.951,139.287 10.998 C 138.916 10.083,138.521 9.127,138.411 8.872 C 138.205 8.398,137.896 7.662,137.459 6.608 C 137.322 6.278,137.032 5.612,136.814 5.129 L 136.419 4.251 70.543 4.251 C 15.367 4.251,4.633 4.292,4.459 4.502 M128.281 45.494 C 130.047 45.675,134.121 46.544,135.028 46.932 C 135.231 47.019,135.772 47.239,136.229 47.419 C 144.639 50.743,152.061 58.632,153.791 66.084 C 153.909 66.591,154.086 67.175,154.185 67.383 C 155.229 69.570,155.263 77.673,154.244 81.238 C 154.099 81.747,153.888 82.537,153.775 82.994 C 153.304 84.904,150.661 90.272,149.815 91.035 C 149.702 91.137,149.252 91.697,148.814 92.280 C 146.021 96.001,140.988 99.665,136.137 101.509 C 133.815 102.392,133.363 102.525,130.499 103.167 C 128.163 103.692,121.296 103.747,118.946 103.261 C 116.452 102.745,113.619 101.953,113.216 101.659 C 113.115 101.585,112.824 101.460,112.571 101.382 C 111.720 101.121,109.758 100.154,108.339 99.296 C 102.306 95.652,97.777 90.140,95.703 83.919 C 91.282 70.658,96.487 56.731,108.595 49.422 C 109.632 48.796,111.925 47.689,112.185 47.689 C 112.278 47.689,112.590 47.572,112.878 47.429 C 113.928 46.907,114.366 46.764,116.543 46.231 C 117.763 45.932,119.760 45.591,120.980 45.473 C 122.200 45.355,123.364 45.230,123.567 45.197 C 124.018 45.122,125.694 45.228,128.281 45.494 M71.534 46.577 C 74.222 47.025,75.310 47.259,75.730 47.481 C 75.913 47.578,76.479 47.801,76.987 47.978 C 83.334 50.181,88.168 56.184,89.034 62.939 C 89.437 66.076,88.926 70.538,87.912 72.736 C 87.771 73.041,87.432 73.771,87.158 74.359 C 85.047 78.882,77.542 84.457,73.538 84.475 C 73.300 84.476,72.689 84.606,72.181 84.763 C 71.475 84.981,69.937 85.075,65.665 85.159 L 60.074 85.270 60.074 93.830 C 60.074 102.104,60.062 102.396,59.716 102.581 C 59.141 102.889,45.837 102.828,45.425 102.515 C 45.012 102.202,44.912 46.844,45.323 46.433 C 45.744 46.012,68.908 46.140,71.534 46.577 M121.534 58.961 C 119.649 59.302,119.454 59.365,117.400 60.298 C 107.352 64.864,106.262 81.606,115.619 87.650 C 117.174 88.655,117.440 88.778,119.686 89.543 C 124.644 91.232,131.371 89.813,135.136 86.284 C 136.858 84.670,137.885 83.135,139.007 80.499 C 140.194 77.708,140.191 71.178,139.001 68.484 C 138.911 68.281,138.656 67.699,138.435 67.190 C 135.777 61.089,128.733 57.659,121.534 58.961 M60.012 59.273 C 59.734 59.552,59.875 71.847,60.159 72.083 C 60.360 72.249,61.605 72.289,65.011 72.237 L 69.593 72.168 70.660 71.643 C 74.855 69.577,75.511 62.935,71.765 60.445 C 71.384 60.192,71.030 59.942,70.980 59.889 C 70.373 59.262,60.574 58.711,60.012 59.273 M8.651 159.137 C 5.533 160.134,3.988 163.152,5.219 165.840 C 5.664 166.814,6.648 168.022,6.995 168.022 C 7.088 168.022,7.250 168.126,7.356 168.254 C 7.541 168.477,8.505 168.975,11.129 170.203 C 13.726 171.419,13.407 173.190,10.631 172.967 C 9.485 172.875,7.579 171.863,7.579 171.346 C 7.579 170.766,6.761 171.027,5.549 171.993 C 3.985 173.241,3.964 173.416,5.222 174.706 C 9.550 179.142,17.419 177.159,17.439 171.627 C 17.449 168.864,16.355 167.720,11.828 165.758 C 9.474 164.739,9.016 164.165,9.869 163.312 C 10.660 162.521,12.241 162.790,13.238 163.884 C 13.918 164.629,14.022 164.608,15.672 163.401 C 17.067 162.382,17.095 162.115,15.942 160.904 C 14.071 158.941,11.336 158.278,8.651 159.137 M50.425 159.137 C 47.378 160.111,45.832 162.963,46.890 165.662 C 47.589 167.447,48.554 168.175,52.903 170.205 C 54.361 170.885,54.873 171.500,54.557 172.192 C 53.911 173.610,50.484 173.039,49.275 171.314 C 48.931 170.822,48.627 170.941,47.089 172.170 C 45.777 173.217,45.769 173.448,46.996 174.702 C 49.655 177.417,54.403 177.890,57.334 175.731 C 59.605 174.058,59.918 170.010,57.917 168.194 C 57.110 167.463,54.587 165.989,54.141 165.989 C 53.610 165.989,51.517 164.762,51.365 164.362 C 50.769 162.795,53.613 162.329,54.942 163.775 C 55.639 164.533,56.097 164.463,57.440 163.390 C 58.807 162.299,58.835 162.104,57.798 160.949 C 56.062 159.017,53.087 158.286,50.425 159.137 M109.471 158.934 C 109.288 159.050,109.249 160.958,109.287 167.849 L 109.335 176.617 111.553 176.617 L 113.771 176.617 113.863 173.243 C 113.914 171.388,114.021 169.867,114.102 169.864 C 114.182 169.861,114.965 170.697,115.842 171.722 L 117.437 173.585 118.275 173.530 C 119.083 173.477,119.169 173.411,120.624 171.727 C 122.658 169.372,122.534 169.277,122.593 173.230 L 122.643 176.617 124.954 176.617 L 127.264 176.617 127.312 167.849 C 127.364 158.459,127.395 158.782,126.433 158.789 C 125.786 158.793,125.717 158.862,122.758 162.477 C 121.302 164.256,119.807 166.077,119.436 166.523 C 119.065 166.970,118.734 167.406,118.700 167.494 C 118.666 167.581,118.494 167.652,118.317 167.652 C 117.986 167.652,117.801 167.469,116.543 165.897 C 116.137 165.389,115.717 164.879,115.610 164.765 C 115.503 164.650,115.128 164.202,114.778 163.768 C 110.510 158.486,110.373 158.361,109.471 158.934 M139.556 159.180 C 138.896 159.389,138.313 159.617,138.262 159.688 C 138.212 159.758,137.864 160.046,137.489 160.328 C 134.244 162.763,135.720 167.394,140.388 169.423 C 143.511 170.780,143.986 171.170,143.734 172.174 C 143.377 173.596,140.211 173.154,138.646 171.464 C 138.053 170.823,138.059 170.822,136.485 172.007 C 134.829 173.253,134.825 173.307,136.288 174.770 C 138.678 177.159,142.432 177.780,145.597 176.309 C 146.485 175.897,148.059 174.259,148.059 173.749 C 148.059 173.559,148.142 173.353,148.244 173.290 C 148.655 173.036,148.457 170.313,147.958 169.372 C 147.317 168.162,145.034 166.359,144.144 166.359 C 144.000 166.359,143.803 166.289,143.706 166.205 C 143.610 166.120,142.990 165.823,142.329 165.544 C 140.845 164.917,140.481 164.599,140.481 163.932 C 140.481 162.477,142.807 162.535,144.409 164.029 C 144.790 164.385,145.102 164.597,145.102 164.501 C 145.102 164.404,145.184 164.325,145.284 164.325 C 145.553 164.325,147.704 162.655,147.818 162.358 C 147.978 161.939,146.673 160.370,145.656 159.759 C 143.984 158.753,141.618 158.529,139.556 159.180 M215.619 159.166 C 211.486 160.280,209.008 163.328,208.743 167.624 C 208.237 175.840,219.149 180.335,224.872 174.268 C 226.453 172.593,226.439 172.427,224.615 171.208 C 222.888 170.054,222.942 170.060,222.151 170.933 C 220.751 172.479,217.299 173.567,216.728 172.643 C 216.665 172.542,216.469 172.458,216.292 172.458 C 215.647 172.458,214.401 171.324,213.941 170.318 C 211.427 164.822,217.816 160.543,222.045 164.890 L 222.926 165.795 223.438 165.476 C 226.439 163.606,226.522 163.401,224.958 161.694 C 222.651 159.176,219.123 158.221,215.619 159.166 M259.050 159.011 C 259.001 159.138,258.983 163.152,259.009 167.930 L 259.057 176.617 261.226 176.669 L 263.394 176.721 263.444 172.510 C 263.481 169.336,263.549 168.299,263.720 168.299 C 263.845 168.299,265.369 169.672,267.107 171.349 C 273.592 177.608,273.893 177.828,274.485 176.722 C 274.775 176.180,274.746 159.663,274.455 159.372 C 274.090 159.006,270.126 159.069,269.983 159.442 C 269.921 159.603,269.871 161.470,269.871 163.590 C 269.871 165.711,269.807 167.485,269.728 167.534 C 269.650 167.582,268.879 166.943,268.015 166.112 C 260.629 159.011,260.371 158.782,259.745 158.781 C 259.411 158.781,259.098 158.884,259.050 159.011 M289.479 159.158 C 283.776 160.839,281.020 166.564,283.387 171.811 C 283.525 172.116,283.742 172.476,283.870 172.610 C 283.999 172.745,284.104 172.935,284.104 173.034 C 284.104 173.416,286.495 175.535,287.455 176.005 C 292.208 178.332,298.462 176.504,300.536 172.181 C 300.780 171.673,301.042 171.125,301.119 170.964 C 301.749 169.646,301.684 166.577,300.986 164.719 C 299.345 160.344,294.082 157.801,289.479 159.158 M334.935 159.160 C 330.041 160.592,327.103 165.258,328.209 169.840 C 330.787 180.524,346.950 178.874,346.950 167.927 C 346.950 161.792,340.936 157.404,334.935 159.160 M361.116 159.162 C 356.185 160.505,353.326 165.149,354.449 169.989 C 356.267 177.828,367.066 179.650,371.935 172.939 C 372.449 172.231,372.458 172.172,372.458 169.693 C 372.458 166.245,372.866 166.525,367.930 166.586 L 363.863 166.636 363.811 168.623 L 363.758 170.610 365.505 170.610 C 367.979 170.610,368.374 170.869,367.348 171.820 C 365.098 173.905,360.039 172.935,359.408 170.298 C 359.339 170.012,359.203 169.675,359.104 169.550 C 359.005 169.424,358.924 168.695,358.924 167.930 C 358.924 167.165,359.005 166.436,359.104 166.310 C 359.203 166.184,359.334 165.871,359.395 165.614 C 360.063 162.805,364.885 162.224,367.468 164.641 C 368.286 165.407,368.231 165.414,369.465 164.372 C 370.037 163.889,370.653 163.371,370.835 163.221 C 371.296 162.841,371.247 162.448,370.656 161.808 C 368.243 159.191,364.658 158.197,361.116 159.162 M23.795 159.381 C 23.717 159.602,23.962 160.111,25.269 162.438 C 25.595 163.019,26.078 163.909,26.342 164.418 C 26.606 164.926,26.996 165.633,27.207 165.989 C 27.418 166.345,27.975 167.301,28.444 168.115 L 29.298 169.593 29.390 173.105 L 29.482 176.617 31.793 176.617 L 34.104 176.617 34.196 173.105 C 34.288 169.623,34.293 169.586,34.834 168.669 C 35.134 168.161,35.558 167.412,35.777 167.006 C 35.995 166.599,36.614 165.476,37.152 164.510 C 37.690 163.544,38.357 162.338,38.633 161.830 C 38.910 161.322,39.316 160.588,39.535 160.201 C 40.096 159.207,39.985 159.150,37.512 159.150 C 34.893 159.150,35.038 159.057,33.766 161.556 C 31.650 165.712,32.030 165.746,29.614 161.183 C 29.157 160.319,28.701 159.508,28.602 159.381 C 28.474 159.218,27.746 159.150,26.148 159.150 C 24.496 159.150,23.853 159.213,23.795 159.381 M66.004 159.408 C 65.866 159.575,65.809 160.280,65.843 161.395 L 65.896 163.124 68.392 163.216 L 70.887 163.309 70.980 169.963 L 71.072 176.617 73.383 176.617 L 75.693 176.617 75.786 169.963 L 75.878 163.309 78.373 163.216 L 80.869 163.124 80.923 161.553 C 80.953 160.689,80.931 159.794,80.874 159.566 L 80.769 159.150 73.494 159.150 C 67.486 159.150,66.182 159.195,66.004 159.408 M88.446 159.566 C 88.390 159.794,88.368 163.725,88.396 168.299 L 88.447 176.617 94.640 176.617 L 100.832 176.617 100.832 174.677 L 100.832 172.736 97.043 172.643 L 93.253 172.551 93.199 171.118 L 93.145 169.686 95.417 169.683 C 98.740 169.680,98.545 169.808,98.481 167.675 L 98.429 165.896 96.211 165.851 C 93.011 165.786,93.132 165.842,93.198 164.458 L 93.253 163.309 96.950 163.216 L 100.647 163.124 100.700 161.395 C 100.776 158.950,101.332 159.150,94.436 159.150 L 88.547 159.150 88.446 159.566 M166.623 159.395 C 166.571 159.529,166.553 160.424,166.582 161.382 L 166.636 163.124 169.124 163.176 C 170.830 163.211,171.657 163.298,171.755 163.453 C 171.834 163.577,171.899 166.613,171.901 170.200 L 171.904 176.721 174.168 176.669 L 176.433 176.617 176.525 169.963 L 176.617 163.309 179.113 163.216 L 181.608 163.124 181.663 161.553 C 181.693 160.689,181.670 159.794,181.613 159.566 L 181.509 159.150 174.113 159.150 C 168.143 159.150,166.699 159.197,166.623 159.395 M189.185 159.566 C 189.130 159.794,189.107 163.725,189.135 168.299 L 189.187 176.617 195.431 176.666 L 201.676 176.715 201.624 174.725 L 201.571 172.736 197.837 172.643 C 193.551 172.537,193.675 172.588,193.752 170.961 L 193.808 169.778 196.341 169.686 C 199.380 169.575,199.291 169.641,199.222 167.543 L 199.168 165.896 196.619 165.804 C 193.774 165.701,193.723 165.676,193.718 164.409 C 193.714 163.234,193.771 163.216,197.526 163.216 C 201.799 163.216,201.479 163.372,201.479 161.293 C 201.479 158.969,202.012 159.150,195.161 159.150 L 189.286 159.150 189.185 159.566 M234.402 159.402 C 234.251 159.584,234.206 162.027,234.240 168.136 L 234.288 176.617 236.599 176.617 L 238.909 176.617 239.002 173.198 L 239.094 169.778 241.867 169.725 C 245.882 169.648,245.471 169.242,245.471 173.294 L 245.471 176.710 247.691 176.710 L 249.911 176.710 249.863 167.976 L 249.815 159.242 247.689 159.242 L 245.564 159.242 245.513 162.252 L 245.462 165.262 244.993 165.441 C 244.482 165.635,239.770 165.690,239.294 165.507 C 239.045 165.411,239.002 164.969,239.002 162.494 C 239.002 160.484,238.934 159.525,238.780 159.372 C 238.451 159.042,234.678 159.068,234.402 159.402 M309.696 159.381 C 309.648 159.508,309.630 163.438,309.656 168.115 L 309.704 176.617 315.579 176.666 L 321.454 176.715 321.402 174.725 L 321.349 172.736 318.036 172.685 C 315.974 172.654,314.630 172.558,314.478 172.431 C 314.283 172.270,314.233 170.908,314.233 165.801 C 314.233 160.111,314.199 159.361,313.941 159.262 C 313.356 159.038,309.790 159.137,309.696 159.381 M378.500 159.404 C 378.446 159.545,378.468 159.732,378.548 159.820 C 378.628 159.909,378.941 160.439,379.244 160.998 C 379.547 161.557,380.237 162.805,380.776 163.771 C 381.316 164.737,382.009 165.984,382.316 166.543 C 382.623 167.103,383.024 167.810,383.206 168.115 C 384.169 169.724,384.192 169.833,384.288 173.290 L 384.381 176.617 386.599 176.617 L 388.817 176.617 388.909 173.198 L 389.002 169.778 389.691 168.533 C 390.071 167.847,390.572 166.974,390.805 166.592 C 391.037 166.209,391.420 165.522,391.655 165.065 C 391.890 164.607,392.365 163.734,392.710 163.124 C 393.056 162.514,393.397 161.890,393.468 161.738 C 393.540 161.585,393.841 161.063,394.137 160.578 C 394.957 159.237,394.844 159.150,392.276 159.150 C 389.763 159.150,389.830 159.112,388.799 161.097 C 387.395 163.799,386.790 164.880,386.681 164.880 C 386.442 164.880,385.982 164.185,385.027 162.384 C 383.707 159.893,383.679 159.843,383.382 159.473 C 383.036 159.043,378.662 158.981,378.500 159.404 M294.485 163.603 C 296.313 164.531,297.308 166.976,296.748 169.166 C 295.315 174.767,287.266 173.718,287.266 167.930 C 287.266 164.235,291.146 161.910,294.485 163.603 M339.741 163.497 C 343.373 165.398,343.029 171.455,339.223 172.597 C 334.241 174.092,330.774 168.798,333.954 164.551 C 334.962 163.204,338.092 162.634,339.741 163.497 " stroke="none" fill="#041c74" fill-rule="evenodd"></path><path id="path2" d="M0.000 92.421 L 0.000 184.843 200.000 184.843 L 400.000 184.843 400.000 92.421 L 400.000 0.000 200.000 0.000 L 0.000 0.000 0.000 92.421 M136.814 5.129 C 137.032 5.612,137.322 6.278,137.459 6.608 C 137.896 7.662,138.205 8.398,138.411 8.872 C 138.521 9.127,138.916 10.083,139.287 10.998 C 140.081 12.951,140.180 13.192,140.550 14.048 C 140.703 14.404,141.253 15.735,141.771 17.006 C 142.290 18.276,142.785 19.482,142.872 19.686 C 142.958 19.889,143.421 21.012,143.900 22.181 C 144.379 23.350,144.841 24.473,144.926 24.677 C 145.011 24.880,145.386 25.795,145.760 26.710 C 146.133 27.625,146.637 28.812,146.879 29.349 C 147.121 29.885,147.320 30.368,147.320 30.422 C 147.320 30.475,147.491 30.910,147.700 31.387 C 148.134 32.381,148.257 32.675,148.717 33.826 C 149.008 34.556,149.365 35.422,149.898 36.691 C 149.984 36.895,150.443 38.018,150.919 39.187 C 151.395 40.356,151.897 41.562,152.034 41.867 C 152.324 42.511,152.592 43.158,153.418 45.194 C 153.747 46.007,154.123 46.922,154.253 47.227 C 154.383 47.532,154.578 47.990,154.686 48.244 C 154.795 48.498,155.306 49.746,155.823 51.017 C 156.339 52.287,156.836 53.494,156.927 53.697 C 157.130 54.154,157.434 54.886,158.307 57.024 C 158.680 57.939,159.056 58.854,159.141 59.057 C 159.820 60.669,162.306 66.657,162.978 68.299 C 163.435 69.418,163.881 70.499,163.968 70.702 C 164.055 70.906,164.550 72.112,165.069 73.383 C 165.587 74.653,166.084 75.860,166.173 76.063 C 166.261 76.266,166.470 76.765,166.637 77.172 C 166.804 77.579,167.049 78.161,167.183 78.466 C 167.316 78.771,167.693 79.686,168.021 80.499 C 168.747 82.299,168.847 82.542,169.198 83.364 C 169.349 83.720,169.779 84.760,170.153 85.675 C 170.983 87.707,171.067 87.910,171.420 88.725 C 171.574 89.080,171.999 90.120,172.365 91.035 C 172.732 91.950,173.105 92.865,173.194 93.068 C 173.595 93.975,173.952 94.835,174.501 96.211 C 174.826 97.024,175.331 98.210,175.624 98.845 C 175.916 99.481,176.155 100.092,176.155 100.203 C 176.155 100.314,176.272 100.626,176.414 100.896 C 176.557 101.166,176.941 102.052,177.268 102.865 C 177.594 103.678,177.972 104.593,178.106 104.898 C 178.240 105.203,178.623 106.181,178.958 107.072 C 179.292 107.962,179.651 108.664,179.755 108.632 C 179.938 108.575,182.308 103.889,187.111 94.085 C 190.372 87.426,193.628 80.775,195.184 77.588 C 196.716 74.451,196.828 74.383,197.617 76.109 C 197.931 76.795,198.503 78.022,198.888 78.835 C 199.273 79.649,199.857 80.896,200.186 81.608 C 200.731 82.786,201.541 84.506,203.234 88.078 C 204.779 91.335,205.973 93.869,206.282 94.547 C 206.636 95.323,208.051 98.323,209.245 100.832 C 209.632 101.645,210.196 102.851,210.497 103.512 C 210.798 104.173,211.429 105.524,211.900 106.516 C 212.370 107.507,213.139 109.129,213.609 110.120 C 214.079 111.111,214.694 112.421,214.975 113.031 C 215.622 114.434,216.993 117.345,218.021 119.501 C 218.767 121.063,219.227 122.040,221.091 126.017 C 221.508 126.906,222.182 128.341,222.590 129.205 C 222.997 130.069,223.604 131.359,223.938 132.070 C 224.272 132.782,224.897 134.113,225.327 135.028 C 225.757 135.943,226.341 137.190,226.625 137.800 C 226.909 138.410,227.606 139.897,228.174 141.104 C 228.741 142.312,229.205 143.372,229.205 143.461 C 229.205 143.554,181.044 143.603,116.774 143.577 L 4.344 143.530 4.297 74.141 C 4.263 22.998,4.306 4.686,4.459 4.502 C 4.633 4.292,15.367 4.251,70.543 4.251 L 136.419 4.251 136.814 5.129 M394.594 4.368 L 395.010 4.479 394.963 74.005 L 394.917 143.530 319.665 143.577 L 244.413 143.623 243.853 142.468 C 243.544 141.832,243.066 140.813,242.789 140.203 C 242.513 139.593,241.922 138.326,241.476 137.387 C 241.030 136.448,240.665 135.636,240.665 135.582 C 240.665 135.528,240.281 134.675,239.812 133.685 C 239.342 132.695,238.809 131.553,238.627 131.146 C 238.445 130.739,237.903 129.575,237.424 128.558 C 236.945 127.542,236.346 126.252,236.092 125.693 C 235.839 125.134,235.309 123.985,234.914 123.141 C 234.519 122.296,234.196 121.574,234.196 121.536 C 234.196 121.498,233.811 120.651,233.341 119.652 C 232.871 118.654,232.337 117.505,232.153 117.098 C 231.970 116.691,231.431 115.527,230.955 114.510 C 230.133 112.756,229.770 111.967,228.700 109.612 C 228.446 109.053,227.998 108.075,227.705 107.440 C 227.412 106.805,226.913 105.723,226.598 105.037 C 226.282 104.351,225.791 103.290,225.507 102.680 C 225.223 102.070,224.784 101.114,224.531 100.555 C 223.821 98.984,221.999 95.033,221.165 93.253 C 220.426 91.677,219.206 89.037,218.859 88.262 C 218.677 87.856,218.144 86.713,217.674 85.724 C 217.205 84.734,216.821 83.887,216.821 83.842 C 216.821 83.797,216.436 82.943,215.966 81.944 C 215.496 80.946,214.962 79.797,214.779 79.390 C 214.596 78.983,214.034 77.777,213.531 76.710 C 213.028 75.642,212.430 74.353,212.202 73.845 C 211.805 72.962,211.518 72.336,210.167 69.409 C 209.839 68.697,209.363 67.657,209.110 67.098 C 208.857 66.539,208.418 65.582,208.133 64.972 C 207.848 64.362,207.316 63.219,206.950 62.431 C 206.584 61.643,205.984 60.354,205.617 59.566 C 205.249 58.778,204.703 57.592,204.403 56.932 C 204.103 56.271,203.619 55.231,203.328 54.621 C 203.037 54.011,202.617 53.096,202.395 52.588 C 202.172 52.079,201.657 50.957,201.250 50.092 C 200.843 49.228,200.361 48.189,200.178 47.782 C 199.552 46.390,197.776 42.607,197.363 41.786 C 196.785 40.638,196.571 40.656,196.008 41.899 C 195.438 43.155,194.801 44.540,192.662 49.168 C 191.521 51.637,191.349 52.010,190.604 53.604 C 190.200 54.469,189.684 55.591,189.457 56.100 C 189.229 56.608,188.597 57.959,188.052 59.102 C 187.507 60.245,187.061 61.221,187.061 61.270 C 187.061 61.320,186.562 62.411,185.952 63.693 C 185.342 64.976,184.843 66.061,184.843 66.103 C 184.843 66.145,184.478 66.947,184.032 67.886 C 182.642 70.814,182.070 72.084,182.070 72.245 C 182.070 72.440,181.355 73.100,181.256 72.996 C 181.216 72.955,180.756 71.881,180.233 70.610 C 179.710 69.339,179.208 68.133,179.118 67.930 C 178.914 67.473,178.610 66.740,177.738 64.603 C 177.364 63.688,176.989 62.773,176.904 62.569 C 176.819 62.366,176.357 61.243,175.878 60.074 C 175.399 58.905,174.936 57.782,174.850 57.579 C 174.763 57.375,174.268 56.169,173.749 54.898 C 173.231 53.628,172.681 52.297,172.527 51.941 C 172.158 51.084,172.059 50.844,171.265 48.891 C 170.893 47.976,170.519 47.061,170.434 46.858 C 170.349 46.654,169.887 45.531,169.409 44.362 C 168.930 43.193,168.468 42.070,168.382 41.867 C 168.297 41.664,168.047 41.040,167.827 40.481 C 167.607 39.921,167.318 39.214,167.184 38.909 C 166.561 37.490,166.359 36.997,166.359 36.899 C 166.359 36.841,166.160 36.355,165.918 35.818 C 165.675 35.282,165.172 34.094,164.798 33.179 C 164.425 32.264,164.050 31.349,163.965 31.146 C 163.880 30.943,163.427 29.841,162.959 28.697 C 160.898 23.663,160.388 22.425,160.160 21.904 C 160.027 21.599,159.528 20.393,159.052 19.224 C 158.576 18.055,158.117 16.932,158.031 16.728 C 157.498 15.459,157.141 14.593,156.850 13.863 C 156.453 12.869,156.332 12.576,155.823 11.368 C 155.608 10.860,155.345 10.236,155.238 9.982 C 155.132 9.727,154.938 9.270,154.807 8.965 C 153.169 5.128,152.988 4.590,153.277 4.406 C 153.546 4.236,393.959 4.198,394.594 4.368 M123.567 45.197 C 123.364 45.230,122.200 45.355,120.980 45.473 C 119.760 45.591,117.763 45.932,116.543 46.231 C 114.366 46.764,113.928 46.907,112.878 47.429 C 112.590 47.572,112.278 47.689,112.185 47.689 C 111.925 47.689,109.632 48.796,108.595 49.422 C 100.174 54.505,95.034 62.641,94.280 72.082 C 93.655 79.907,95.907 87.029,100.916 93.068 C 103.643 96.356,109.262 100.364,112.571 101.382 C 112.824 101.460,113.115 101.585,113.216 101.659 C 113.619 101.953,116.452 102.745,118.946 103.261 C 121.296 103.747,128.163 103.692,130.499 103.167 C 133.363 102.525,133.815 102.392,136.137 101.509 C 140.988 99.665,146.021 96.001,148.814 92.280 C 149.252 91.697,149.702 91.137,149.815 91.035 C 150.661 90.272,153.304 84.904,153.775 82.994 C 153.888 82.537,154.099 81.747,154.244 81.238 C 155.263 77.673,155.229 69.570,154.185 67.383 C 154.086 67.175,153.909 66.591,153.791 66.084 C 152.061 58.632,144.639 50.743,136.229 47.419 C 135.772 47.239,135.231 47.019,135.028 46.932 C 133.123 46.117,125.232 44.922,123.567 45.197 M45.323 46.433 C 44.912 46.844,45.012 102.202,45.425 102.515 C 45.837 102.828,59.141 102.889,59.716 102.581 C 60.062 102.396,60.074 102.104,60.074 93.830 L 60.074 85.270 65.665 85.159 C 69.937 85.075,71.475 84.981,72.181 84.763 C 72.689 84.606,73.300 84.476,73.538 84.475 C 77.542 84.457,85.047 78.882,87.158 74.359 C 87.432 73.771,87.771 73.041,87.912 72.736 C 92.088 63.681,86.637 51.327,76.987 47.978 C 76.479 47.801,75.913 47.578,75.730 47.481 C 75.310 47.259,74.222 47.025,71.534 46.577 C 68.908 46.140,45.744 46.012,45.323 46.433 M229.088 46.996 C 228.910 47.248,228.790 47.494,227.299 50.647 C 226.186 53.001,225.396 54.703,224.765 56.100 C 224.536 56.608,223.913 57.939,223.381 59.057 C 222.849 60.176,222.186 61.590,221.907 62.200 C 221.628 62.810,221.190 63.766,220.934 64.325 C 220.678 64.884,220.075 66.174,219.593 67.190 C 217.443 71.725,217.558 71.402,217.817 72.156 C 217.947 72.532,218.150 72.937,218.268 73.056 C 218.387 73.175,218.484 73.351,218.484 73.448 C 218.484 73.545,218.683 74.048,218.925 74.566 C 219.168 75.084,219.550 75.924,219.774 76.433 C 219.999 76.941,220.373 77.773,220.606 78.281 C 221.324 79.849,221.975 81.284,222.472 82.394 C 225.187 88.456,224.931 88.226,226.147 85.700 C 226.642 84.669,228.021 81.830,229.211 79.390 C 230.400 76.950,231.978 73.706,232.718 72.181 C 233.457 70.656,235.039 67.412,236.233 64.972 C 237.427 62.532,239.047 59.205,239.833 57.579 C 240.620 55.952,242.085 52.942,243.090 50.891 C 244.095 48.839,244.917 47.071,244.917 46.963 C 244.917 46.656,229.304 46.689,229.088 46.996 M257.571 46.996 C 257.523 47.123,257.505 59.787,257.531 75.139 L 257.579 103.050 277.542 103.050 L 297.505 103.050 297.505 96.488 L 297.505 89.926 284.889 89.879 L 272.274 89.831 272.274 85.026 L 272.274 80.222 280.754 80.222 C 287.707 80.222,289.272 80.176,289.444 79.969 C 289.594 79.788,289.640 78.017,289.605 73.823 L 289.556 67.930 280.961 67.833 C 276.234 67.779,272.345 67.717,272.320 67.694 C 272.076 67.475,272.312 60.284,272.566 60.186 C 272.727 60.124,278.165 60.074,284.652 60.074 L 296.445 60.074 296.556 59.658 C 296.702 59.116,296.702 47.724,296.556 47.181 L 296.445 46.765 277.052 46.765 C 261.708 46.765,257.641 46.813,257.571 46.996 M306.839 74.950 L 306.839 103.147 314.094 103.098 L 321.349 103.050 321.397 94.431 L 321.445 85.813 322.021 85.697 C 322.338 85.634,323.633 85.582,324.899 85.582 C 327.634 85.582,327.267 85.330,329.945 89.047 C 330.910 90.387,332.716 92.880,333.956 94.587 C 335.197 96.293,336.511 98.105,336.877 98.614 C 338.636 101.057,340.011 102.878,340.190 103.001 C 340.504 103.216,356.151 103.173,356.285 102.957 C 356.377 102.809,355.584 101.498,354.666 100.278 C 354.222 99.690,350.980 95.136,349.076 92.428 C 347.856 90.693,346.753 89.129,346.624 88.953 C 341.660 82.135,341.785 82.391,342.987 81.527 C 345.517 79.711,348.128 76.439,349.266 73.660 C 349.432 73.253,349.687 72.647,349.831 72.314 C 349.975 71.980,350.092 71.550,350.092 71.358 C 350.092 71.166,350.226 70.487,350.390 69.847 C 350.736 68.495,350.666 63.117,350.285 61.830 C 349.734 59.969,349.481 59.196,349.225 58.595 C 346.846 53.013,342.696 49.685,335.371 47.485 C 333.675 46.975,331.725 46.894,319.547 46.825 L 306.839 46.753 306.839 74.950 M127.367 58.957 C 132.658 59.947,136.536 62.832,138.435 67.190 C 138.656 67.699,138.911 68.281,139.001 68.484 C 140.191 71.178,140.194 77.708,139.007 80.499 C 136.639 86.063,132.598 89.308,127.155 90.014 C 122.727 90.589,118.980 89.821,115.619 87.650 C 106.262 81.606,107.352 64.864,117.400 60.298 C 119.454 59.365,119.649 59.302,121.534 58.961 C 123.961 58.522,125.041 58.521,127.367 58.957 M69.963 59.471 C 70.471 59.648,70.929 59.837,70.980 59.889 C 71.030 59.942,71.384 60.192,71.765 60.445 C 75.511 62.935,74.855 69.577,70.660 71.643 L 69.593 72.168 65.011 72.237 C 61.605 72.289,60.360 72.249,60.159 72.083 C 59.875 71.847,59.734 59.552,60.012 59.273 C 60.318 58.968,69.018 59.140,69.963 59.471 M331.556 60.007 C 332.965 60.617,333.140 60.725,333.808 61.393 C 336.891 64.476,336.115 70.042,332.315 72.102 L 331.146 72.736 326.340 72.736 L 321.534 72.736 321.486 66.220 L 321.437 59.704 326.147 59.704 C 330.102 59.704,330.968 59.753,331.556 60.007 M13.157 159.129 C 14.570 159.615,14.936 159.849,15.942 160.904 C 17.095 162.115,17.067 162.382,15.672 163.401 C 14.022 164.608,13.918 164.629,13.238 163.884 C 12.241 162.790,10.660 162.521,9.869 163.312 C 9.016 164.165,9.474 164.739,11.828 165.758 C 16.355 167.720,17.449 168.864,17.439 171.627 C 17.419 177.159,9.550 179.142,5.222 174.706 C 3.964 173.416,3.985 173.241,5.549 171.993 C 6.761 171.027,7.579 170.766,7.579 171.346 C 7.579 171.863,9.485 172.875,10.631 172.967 C 13.407 173.190,13.726 171.419,11.129 170.203 C 8.505 168.975,7.541 168.477,7.356 168.254 C 7.250 168.126,7.088 168.022,6.995 168.022 C 6.648 168.022,5.664 166.814,5.219 165.840 C 3.295 161.638,8.257 157.444,13.157 159.129 M54.711 159.074 C 56.159 159.504,56.909 159.959,57.798 160.949 C 58.835 162.104,58.807 162.299,57.440 163.390 C 56.097 164.463,55.639 164.533,54.942 163.775 C 53.613 162.329,50.769 162.795,51.365 164.362 C 51.517 164.762,53.610 165.989,54.141 165.989 C 54.587 165.989,57.110 167.463,57.917 168.194 C 59.918 170.010,59.605 174.058,57.334 175.731 C 54.403 177.890,49.655 177.417,46.996 174.702 C 45.769 173.448,45.777 173.217,47.089 172.170 C 48.627 170.941,48.931 170.822,49.275 171.314 C 50.484 173.039,53.911 173.610,54.557 172.192 C 54.873 171.500,54.361 170.885,52.903 170.205 C 48.554 168.175,47.589 167.447,46.890 165.662 C 45.265 161.515,49.870 157.636,54.711 159.074 M110.872 159.104 C 111.199 159.384,112.251 160.641,114.778 163.768 C 115.128 164.202,115.503 164.650,115.610 164.765 C 115.717 164.879,116.137 165.389,116.543 165.897 C 117.801 167.469,117.986 167.652,118.317 167.652 C 118.494 167.652,118.666 167.581,118.700 167.494 C 118.734 167.406,119.065 166.970,119.436 166.523 C 119.807 166.077,121.302 164.256,122.758 162.477 C 125.717 158.862,125.786 158.793,126.433 158.789 C 127.395 158.782,127.364 158.459,127.312 167.849 L 127.264 176.617 124.954 176.617 L 122.643 176.617 122.593 173.230 C 122.534 169.277,122.658 169.372,120.624 171.727 C 119.169 173.411,119.083 173.477,118.275 173.530 L 117.437 173.585 115.842 171.722 C 114.965 170.697,114.182 169.861,114.102 169.864 C 114.021 169.867,113.914 171.388,113.863 173.243 L 113.771 176.617 111.553 176.617 L 109.335 176.617 109.287 167.849 C 109.249 160.958,109.288 159.050,109.471 158.934 C 109.860 158.687,110.474 158.762,110.872 159.104 M144.005 159.075 C 145.125 159.404,146.128 159.955,146.648 160.527 C 147.464 161.425,147.909 162.121,147.818 162.358 C 147.704 162.655,145.553 164.325,145.284 164.325 C 145.184 164.325,145.102 164.404,145.102 164.501 C 145.102 164.597,144.790 164.385,144.409 164.029 C 142.807 162.535,140.481 162.477,140.481 163.932 C 140.481 164.599,140.845 164.917,142.329 165.544 C 142.990 165.823,143.610 166.120,143.706 166.205 C 143.803 166.289,144.000 166.359,144.144 166.359 C 145.034 166.359,147.317 168.162,147.958 169.372 C 148.457 170.313,148.655 173.036,148.244 173.290 C 148.142 173.353,148.059 173.559,148.059 173.749 C 148.059 174.259,146.485 175.897,145.597 176.309 C 142.432 177.780,138.678 177.159,136.288 174.770 C 134.825 173.307,134.829 173.253,136.485 172.007 C 138.059 170.822,138.053 170.823,138.646 171.464 C 140.211 173.154,143.377 173.596,143.734 172.174 C 143.986 171.170,143.511 170.780,140.388 169.423 C 135.720 167.394,134.244 162.763,137.489 160.328 C 137.864 160.046,138.212 159.758,138.262 159.688 C 138.776 158.975,142.362 158.592,144.005 159.075 M220.543 159.069 C 222.453 159.626,223.792 160.422,224.958 161.694 C 226.522 163.401,226.439 163.606,223.438 165.476 L 222.926 165.795 222.045 164.890 C 217.816 160.543,211.427 164.822,213.941 170.318 C 214.401 171.324,215.647 172.458,216.292 172.458 C 216.469 172.458,216.665 172.542,216.728 172.643 C 217.299 173.567,220.751 172.479,222.151 170.933 C 222.942 170.060,222.888 170.054,224.615 171.208 C 226.439 172.427,226.453 172.593,224.872 174.268 C 218.305 181.230,206.357 174.404,209.087 165.249 C 210.429 160.746,215.994 157.744,220.543 159.069 M263.398 161.692 C 265.074 163.293,267.152 165.282,268.015 166.112 C 268.879 166.943,269.650 167.582,269.728 167.534 C 269.807 167.485,269.871 165.711,269.871 163.590 C 269.871 161.470,269.921 159.603,269.983 159.442 C 270.126 159.069,274.090 159.006,274.455 159.372 C 274.746 159.663,274.775 176.180,274.485 176.722 C 273.893 177.828,273.592 177.608,267.107 171.349 C 265.369 169.672,263.845 168.299,263.720 168.299 C 263.549 168.299,263.481 169.336,263.444 172.510 L 263.394 176.721 261.226 176.669 L 259.057 176.617 259.009 167.930 C 258.956 158.257,258.913 158.780,259.745 158.781 C 260.275 158.782,260.735 159.149,263.398 161.692 M294.547 159.134 C 299.795 160.533,303.186 166.638,301.119 170.964 C 301.042 171.125,300.780 171.673,300.536 172.181 C 298.462 176.504,292.208 178.332,287.455 176.005 C 286.495 175.535,284.104 173.416,284.104 173.034 C 284.104 172.935,283.999 172.745,283.870 172.610 C 283.494 172.216,283.160 171.354,282.788 169.813 C 281.204 163.247,287.734 157.317,294.547 159.134 M340.019 159.147 C 344.424 160.395,346.950 163.595,346.950 167.927 C 346.950 178.874,330.787 180.524,328.209 169.840 C 326.633 163.311,333.327 157.250,340.019 159.147 M366.267 159.147 C 369.324 160.014,371.918 162.328,370.835 163.221 C 370.653 163.371,370.037 163.889,369.465 164.372 C 368.231 165.414,368.286 165.407,367.468 164.641 C 364.885 162.224,360.063 162.805,359.395 165.614 C 359.334 165.871,359.203 166.184,359.104 166.310 C 359.005 166.436,358.924 167.165,358.924 167.930 C 358.924 168.695,359.005 169.424,359.104 169.550 C 359.203 169.675,359.339 170.012,359.408 170.298 C 360.039 172.935,365.098 173.905,367.348 171.820 C 368.374 170.869,367.979 170.610,365.505 170.610 L 363.758 170.610 363.811 168.623 L 363.863 166.636 367.930 166.586 C 372.866 166.525,372.458 166.245,372.458 169.693 C 372.458 172.172,372.449 172.231,371.935 172.939 C 367.066 179.650,356.267 177.828,354.449 169.989 C 352.874 163.198,359.409 157.202,366.267 159.147 M28.602 159.381 C 28.701 159.508,29.157 160.319,29.614 161.183 C 32.030 165.746,31.650 165.712,33.766 161.556 C 35.038 159.057,34.893 159.150,37.512 159.150 C 39.985 159.150,40.096 159.207,39.535 160.201 C 39.316 160.588,38.910 161.322,38.633 161.830 C 38.357 162.338,37.690 163.544,37.152 164.510 C 36.614 165.476,35.995 166.599,35.777 167.006 C 35.558 167.412,35.134 168.161,34.834 168.669 C 34.293 169.586,34.288 169.623,34.196 173.105 L 34.104 176.617 31.793 176.617 L 29.482 176.617 29.390 173.105 L 29.298 169.593 28.444 168.115 C 27.975 167.301,27.418 166.345,27.207 165.989 C 26.996 165.633,26.606 164.926,26.342 164.418 C 26.078 163.909,25.595 163.019,25.269 162.438 C 23.287 158.908,23.223 159.150,26.148 159.150 C 27.746 159.150,28.474 159.218,28.602 159.381 M80.874 159.566 C 80.931 159.794,80.953 160.689,80.923 161.553 L 80.869 163.124 78.373 163.216 L 75.878 163.309 75.786 169.963 L 75.693 176.617 73.383 176.617 L 71.072 176.617 70.980 169.963 L 70.887 163.309 68.392 163.216 L 65.896 163.124 65.843 161.395 C 65.767 158.930,65.019 159.150,73.494 159.150 L 80.769 159.150 80.874 159.566 M100.539 159.408 C 100.678 159.575,100.735 160.280,100.700 161.395 L 100.647 163.124 96.950 163.216 L 93.253 163.309 93.198 164.458 C 93.132 165.842,93.011 165.786,96.211 165.851 L 98.429 165.896 98.481 167.675 C 98.545 169.808,98.740 169.680,95.417 169.683 L 93.145 169.686 93.199 171.118 L 93.253 172.551 97.043 172.643 L 100.832 172.736 100.832 174.677 L 100.832 176.617 94.640 176.617 L 88.447 176.617 88.396 168.299 C 88.368 163.725,88.390 159.794,88.446 159.566 L 88.547 159.150 94.436 159.150 C 99.256 159.150,100.363 159.197,100.539 159.408 M181.613 159.566 C 181.670 159.794,181.693 160.689,181.663 161.553 L 181.608 163.124 179.113 163.216 L 176.617 163.309 176.525 169.963 L 176.433 176.617 174.168 176.669 L 171.904 176.721 171.901 170.200 C 171.899 166.613,171.834 163.577,171.755 163.453 C 171.657 163.298,170.830 163.211,169.124 163.176 L 166.636 163.124 166.582 161.382 C 166.553 160.424,166.571 159.529,166.623 159.395 C 166.699 159.197,168.143 159.150,174.113 159.150 L 181.509 159.150 181.613 159.566 M201.257 159.372 C 201.617 159.732,201.556 162.962,201.186 163.104 C 201.026 163.166,199.379 163.216,197.526 163.216 C 193.771 163.216,193.714 163.234,193.718 164.409 C 193.723 165.676,193.774 165.701,196.619 165.804 L 199.168 165.896 199.222 167.543 C 199.291 169.641,199.380 169.575,196.341 169.686 L 193.808 169.778 193.752 170.961 C 193.675 172.588,193.551 172.537,197.837 172.643 L 201.571 172.736 201.624 174.725 L 201.676 176.715 195.431 176.666 L 189.187 176.617 189.135 168.299 C 189.107 163.725,189.130 159.794,189.185 159.566 L 189.286 159.150 195.161 159.150 C 199.483 159.150,201.094 159.208,201.257 159.372 M238.780 159.372 C 238.934 159.525,239.002 160.484,239.002 162.494 C 239.002 164.969,239.045 165.411,239.294 165.507 C 239.770 165.690,244.482 165.635,244.993 165.441 L 245.462 165.262 245.513 162.252 L 245.564 159.242 247.689 159.242 L 249.815 159.242 249.863 167.976 L 249.911 176.710 247.691 176.710 L 245.471 176.710 245.471 173.294 C 245.471 169.242,245.882 169.648,241.867 169.725 L 239.094 169.778 239.002 173.198 L 238.909 176.617 236.599 176.617 L 234.288 176.617 234.240 168.136 C 234.206 162.027,234.251 159.584,234.402 159.402 C 234.678 159.068,238.451 159.042,238.780 159.372 M313.941 159.262 C 314.199 159.361,314.233 160.111,314.233 165.801 C 314.233 170.908,314.283 172.270,314.478 172.431 C 314.630 172.558,315.974 172.654,318.036 172.685 L 321.349 172.736 321.402 174.725 L 321.454 176.715 315.579 176.666 L 309.704 176.617 309.656 168.115 C 309.630 163.438,309.648 159.508,309.696 159.381 C 309.790 159.137,313.356 159.038,313.941 159.262 M383.382 159.473 C 383.679 159.843,383.707 159.893,385.027 162.384 C 385.982 164.185,386.442 164.880,386.681 164.880 C 386.790 164.880,387.395 163.799,388.799 161.097 C 389.830 159.112,389.763 159.150,392.276 159.150 C 394.844 159.150,394.957 159.237,394.137 160.578 C 393.841 161.063,393.540 161.585,393.468 161.738 C 393.397 161.890,393.056 162.514,392.710 163.124 C 392.365 163.734,391.890 164.607,391.655 165.065 C 391.420 165.522,391.037 166.209,390.805 166.592 C 390.572 166.974,390.071 167.847,389.691 168.533 L 389.002 169.778 388.909 173.198 L 388.817 176.617 386.599 176.617 L 384.381 176.617 384.288 173.290 C 384.192 169.833,384.169 169.724,383.206 168.115 C 383.024 167.810,382.623 167.103,382.316 166.543 C 382.009 165.984,381.316 164.737,380.776 163.771 C 380.237 162.805,379.547 161.557,379.244 160.998 C 378.941 160.439,378.628 159.909,378.548 159.820 C 378.468 159.732,378.446 159.545,378.500 159.404 C 378.662 158.981,383.036 159.043,383.382 159.473 M290.943 163.190 C 286.611 163.984,285.902 170.594,289.956 172.387 C 294.792 174.526,299.100 168.880,295.793 164.737 C 294.760 163.443,292.862 162.838,290.943 163.190 M336.414 163.152 C 332.059 163.966,331.371 170.558,335.449 172.390 C 338.250 173.648,341.547 172.155,342.136 169.361 C 342.964 165.436,340.206 162.443,336.414 163.152 " stroke="none" fill="#00000000" fill-rule="evenodd"></path></g></svg>