<svg id="svg" xmlns="http://www.w3.org/2000/svg" xmlns:xlink="http://www.w3.org/1999/xlink" width="400" height="393.33333333333337" viewBox="0, 0, 400,393.33333333333337"><g id="svgg"><path id="path0" d="M202.619 1.883 C 201.545 2.918,181.467 17.524,158.000 34.341 C 134.533 51.157,90.133 83.084,59.333 105.288 C 28.533 127.493,2.583 145.951,1.667 146.306 C -3.398 148.269,1.876 149.333,16.667 149.333 L 33.333 149.333 33.333 236.000 L 33.333 322.667 110.709 322.667 C 201.622 322.667,200.728 322.821,203.757 306.589 C 207.343 287.365,200.406 283.917,155.333 282.516 C 112.817 281.195,104.185 279.065,92.619 267.043 C 73.671 247.350,83.060 213.360,110.471 202.416 C 117.652 199.549,120.036 199.388,162.082 198.944 L 206.164 198.479 207.826 192.239 C 213.815 169.754,224.988 165.617,280.333 165.396 L 296.000 165.333 296.000 175.333 L 296.000 185.333 332.667 185.333 L 369.333 185.333 369.331 167.000 L 369.328 148.667 384.803 149.083 C 394.811 149.352,400.111 149.024,399.805 148.154 C 399.546 147.414,386.133 136.704,370.000 124.355 C 353.867 112.005,314.867 82.154,283.333 58.018 C 251.800 33.882,221.846 10.955,216.769 7.068 C 206.826 -0.546,205.602 -0.994,202.619 1.883 M297.333 212.000 L 297.333 225.333 325.793 225.333 C 356.915 225.333,360.275 226.166,358.006 233.314 C 356.540 237.934,351.871 238.667,323.913 238.667 L 297.333 238.667 297.335 245.667 L 297.337 252.667 263.668 252.000 C 218.673 251.109,211.015 247.514,207.359 225.565 L 206.398 219.796 166.199 220.344 C 112.902 221.069,103.740 224.649,107.252 243.371 C 109.870 257.322,120.227 261.323,153.820 261.360 C 200.325 261.411,215.315 266.614,224.434 285.875 C 234.281 306.671,227.003 327.088,205.750 338.291 C 192.801 345.117,189.818 345.333,108.601 345.333 L 33.333 345.333 33.333 369.333 L 33.333 393.333 201.333 393.333 L 369.333 393.333 369.333 296.000 L 369.333 198.667 333.333 198.667 L 297.333 198.667 297.333 212.000 " stroke="none" fill="#000000" fill-rule="evenodd"></path></g></svg>