<svg id="svg" version="1.1" xmlns="http://www.w3.org/2000/svg" xmlns:xlink="http://www.w3.org/1999/xlink" width="400" height="210.5263157894737" viewBox="0, 0, 400,210.5263157894737"><g id="svgg"><path id="path0" d="M18.534 25.039 C 18.229 25.609,18.229 153.549,18.534 154.119 C 18.843 154.696,381.756 154.770,381.977 154.193 C 382.244 153.498,382.121 25.152,381.853 24.884 C 381.347 24.379,18.804 24.533,18.534 25.039 M370.989 35.747 C 371.432 36.190,371.391 143.303,370.947 143.583 C 370.536 143.844,237.903 143.862,237.218 143.602 C 236.906 143.483,236.543 143.002,236.227 142.286 C 235.537 140.723,232.442 134.013,230.021 128.832 C 228.909 126.453,228.000 124.446,228.000 124.371 C 228.000 124.173,226.210 120.295,225.496 118.946 C 225.159 118.309,224.531 116.935,224.101 115.894 C 223.671 114.852,222.797 112.911,222.158 111.579 C 221.519 110.247,220.309 107.642,219.468 105.789 C 218.628 103.937,217.065 100.526,215.997 98.211 C 214.928 95.895,213.369 92.484,212.532 90.632 C 211.695 88.779,210.698 86.647,210.316 85.895 C 209.934 85.142,208.936 83.011,208.098 81.158 C 204.021 72.144,203.071 70.069,202.219 68.316 C 201.712 67.274,200.905 65.521,200.424 64.421 C 198.989 61.137,197.835 58.947,197.538 58.947 C 197.385 58.947,196.983 59.539,196.644 60.263 C 196.306 60.987,195.222 63.294,194.234 65.390 C 193.247 67.486,192.255 69.665,192.031 70.232 C 191.806 70.799,191.039 72.447,190.328 73.895 C 189.616 75.342,188.704 77.313,188.302 78.276 C 187.900 79.238,187.132 80.895,186.597 81.960 C 186.061 83.024,185.231 84.795,184.753 85.895 C 183.605 88.533,183.449 88.791,183.169 88.514 C 182.901 88.249,181.000 83.834,180.318 81.895 C 180.054 81.142,179.495 79.792,179.077 78.894 C 178.658 77.996,178.316 77.164,178.316 77.046 C 178.316 76.927,178.045 76.288,177.714 75.626 C 177.382 74.963,176.942 73.900,176.735 73.263 C 176.529 72.626,176.148 71.632,175.890 71.053 C 174.939 68.920,173.590 65.692,172.097 61.976 C 171.254 59.879,170.308 57.605,169.993 56.924 C 169.679 56.242,169.156 54.974,168.832 54.105 C 168.508 53.237,167.754 51.389,167.157 50.000 C 165.768 46.771,165.514 46.155,164.205 42.842 C 163.610 41.337,162.791 39.395,162.385 38.526 C 161.379 36.377,161.267 35.645,161.923 35.519 C 163.305 35.255,370.724 35.482,370.989 35.747 M146.252 36.632 C 147.022 38.210,148.121 40.770,149.550 44.316 C 150.296 46.168,151.714 49.626,152.700 52.000 C 157.980 64.715,158.895 66.935,160.246 70.316 C 161.056 72.342,161.960 74.521,162.255 75.158 C 162.788 76.308,163.439 77.867,165.156 82.105 C 165.649 83.321,166.593 85.595,167.254 87.158 C 167.916 88.721,168.729 90.731,169.063 91.624 C 169.396 92.518,169.854 93.613,170.082 94.059 C 170.309 94.504,171.075 96.331,171.784 98.119 C 172.494 99.906,173.348 101.984,173.683 102.737 C 174.921 105.516,175.839 107.733,176.518 109.579 C 176.901 110.621,177.801 112.800,178.519 114.421 C 179.237 116.042,180.043 117.984,180.309 118.737 C 181.154 121.128,181.520 121.914,181.754 121.836 C 182.037 121.742,183.201 119.463,188.014 109.579 C 196.825 91.483,197.140 90.862,197.555 90.776 C 197.922 90.700,198.306 91.386,200.007 95.158 C 200.659 96.605,201.707 98.832,202.335 100.105 C 202.964 101.379,203.654 102.847,203.869 103.368 C 204.085 103.889,204.856 105.547,205.583 107.053 C 207.021 110.032,209.425 115.161,211.405 119.474 C 212.624 122.131,213.784 124.591,217.955 133.368 C 219.055 135.684,220.195 138.147,220.488 138.842 C 220.781 139.537,221.360 140.752,221.774 141.542 C 222.612 143.142,222.678 143.476,222.193 143.662 C 221.758 143.829,30.032 143.829,29.596 143.662 C 29.248 143.528,29.057 36.066,29.404 35.719 C 29.481 35.642,55.700 35.602,87.667 35.631 L 145.789 35.684 146.252 36.632 M126.737 63.068 C 126.447 63.118,125.521 63.261,124.679 63.385 C 122.641 63.686,118.495 65.095,117.053 65.977 C 116.416 66.367,115.488 66.891,114.990 67.142 C 109.210 70.055,103.483 78.426,102.391 85.556 C 99.090 107.112,120.545 123.344,141.474 115.123 C 150.492 111.580,156.245 104.523,158.350 94.421 C 160.291 85.106,155.252 73.386,146.947 67.904 C 143.748 65.791,140.152 64.257,136.526 63.458 C 135.107 63.145,127.937 62.859,126.737 63.068 M56.639 64.197 C 56.264 64.897,56.343 115.392,56.720 115.907 C 57.066 116.382,68.391 116.662,69.541 116.225 L 70.105 116.010 70.105 108.545 C 70.105 104.439,70.193 100.850,70.300 100.568 L 70.494 100.057 75.510 99.945 C 81.634 99.809,83.884 99.422,86.938 97.979 C 93.724 94.773,97.297 89.246,97.338 81.895 C 97.391 72.299,91.243 65.720,80.632 64.013 C 77.828 63.562,56.893 63.722,56.639 64.197 M227.844 64.579 C 227.507 64.880,225.121 69.672,223.731 72.842 C 223.553 73.247,222.546 75.404,221.493 77.634 C 220.440 79.864,219.579 81.729,219.579 81.779 C 219.579 81.828,219.011 83.057,218.316 84.509 C 216.806 87.667,216.829 87.256,218.020 89.699 C 218.552 90.791,219.394 92.632,219.890 93.789 C 220.650 95.564,222.569 99.718,223.415 101.421 C 223.967 102.533,224.038 102.401,234.334 81.158 C 236.171 77.367,238.528 72.525,241.139 67.177 C 242.035 65.341,242.256 64.709,242.077 64.493 C 241.674 64.007,228.395 64.087,227.844 64.579 M254.311 64.751 C 254.181 65.091,254.105 74.639,254.105 90.526 C 254.105 106.414,254.181 115.962,254.311 116.302 L 254.516 116.842 272.535 116.842 C 284.553 116.842,290.690 116.770,290.961 116.624 C 291.488 116.342,291.605 105.090,291.086 104.659 C 290.888 104.495,287.382 104.408,279.349 104.370 L 267.895 104.316 267.835 100.316 C 267.802 98.116,267.828 96.103,267.892 95.842 L 268.008 95.368 275.786 95.368 C 283.261 95.368,283.573 95.353,283.782 94.961 C 284.170 94.237,284.069 84.520,283.669 84.120 C 283.381 83.832,282.362 83.789,275.692 83.789 C 268.913 83.789,268.031 83.752,267.917 83.456 C 267.847 83.273,267.789 81.813,267.789 80.211 C 267.789 78.608,267.847 77.148,267.917 76.965 C 268.032 76.667,269.208 76.632,279.033 76.632 C 287.299 76.632,290.084 76.569,290.274 76.379 C 290.458 76.195,290.526 74.578,290.526 70.421 C 290.526 66.264,290.458 64.647,290.274 64.463 C 290.081 64.271,285.795 64.211,272.268 64.211 L 254.516 64.211 254.311 64.751 M300.253 64.463 C 299.886 64.830,299.886 116.223,300.253 116.589 C 300.694 117.031,313.129 116.942,313.501 116.494 C 313.730 116.219,313.811 114.527,313.895 108.336 L 314.000 100.526 316.000 100.463 C 319.226 100.360,319.701 100.654,321.990 104.170 C 322.268 104.598,322.858 105.438,323.300 106.038 C 323.743 106.638,324.571 107.775,325.141 108.565 C 325.710 109.354,326.948 111.042,327.890 112.316 C 328.833 113.589,329.883 115.031,330.223 115.519 C 331.157 116.857,331.140 116.855,338.839 116.793 C 345.170 116.742,345.790 116.705,345.852 116.380 C 345.920 116.031,345.504 115.405,341.686 110.105 C 340.643 108.658,339.029 106.384,338.099 105.053 C 337.169 103.721,335.659 101.589,334.745 100.316 C 332.649 97.398,332.645 97.516,334.920 95.549 C 345.808 86.136,341.200 68.572,326.929 65.085 C 323.433 64.231,301.008 63.708,300.253 64.463 M134.105 75.928 C 145.314 78.233,148.542 94.863,139.151 101.919 C 131.853 107.403,119.864 104.203,117.183 96.056 C 113.065 83.544,121.626 73.362,134.105 75.928 M79.895 76.195 C 84.316 77.599,84.506 85.654,80.161 87.489 C 79.112 87.932,71.108 88.196,70.526 87.806 C 70.131 87.542,69.935 77.317,70.307 76.340 L 70.528 75.758 74.790 75.843 C 77.418 75.895,79.375 76.030,79.895 76.195 M322.609 76.437 C 326.090 77.314,327.952 81.845,326.252 85.306 C 324.963 87.932,323.570 88.451,318.033 88.373 L 314.000 88.316 313.944 82.529 C 313.913 79.347,313.934 76.623,313.990 76.477 C 314.121 76.135,321.279 76.102,322.609 76.437 M22.737 168.948 C 18.809 170.244,17.571 174.913,20.597 177.019 C 21.477 177.632,23.359 178.608,24.691 179.144 C 25.361 179.413,26.001 179.805,26.113 180.014 C 27.189 182.026,23.833 182.581,22.000 180.694 C 21.145 179.814,21.079 179.819,19.686 180.895 C 18.250 182.004,18.230 182.356,19.526 183.630 C 22.446 186.497,28.147 186.321,29.983 183.306 C 31.775 180.366,30.607 177.469,26.932 175.740 C 26.072 175.335,25.004 174.834,24.559 174.627 C 23.004 173.901,23.174 172.419,24.813 172.422 C 25.338 172.423,25.693 172.605,27.043 173.562 C 27.689 174.019,28.307 173.796,29.526 172.668 C 31.650 170.702,26.302 167.772,22.737 168.948 M61.282 169.089 C 58.510 170.045,57.345 172.223,58.118 175.006 C 58.499 176.378,59.392 177.136,62.313 178.566 C 65.405 180.080,65.817 180.518,64.957 181.378 C 64.089 182.246,62.207 181.945,60.854 180.723 C 59.864 179.828,59.954 179.822,58.598 180.868 C 57.166 181.973,57.150 182.376,58.482 183.744 C 61.739 187.088,68.989 185.799,69.593 181.768 C 70.062 178.645,68.650 176.788,64.573 175.167 C 62.371 174.291,61.760 173.427,62.841 172.718 C 63.561 172.247,64.654 172.479,65.592 173.303 C 66.442 174.049,66.749 173.991,68.226 172.804 C 70.843 170.701,65.264 167.717,61.282 169.089 M116.351 168.772 C 116.080 169.043,116.189 184.946,116.463 185.221 C 116.726 185.484,119.481 185.579,120.088 185.346 C 120.366 185.239,120.423 184.780,120.436 182.556 C 120.455 179.129,120.569 178.797,121.391 179.784 C 124.133 183.079,124.379 183.128,126.566 180.823 C 128.582 178.700,128.632 178.730,128.632 182.103 C 128.632 185.439,128.654 185.474,130.831 185.474 C 133.002 185.474,132.856 186.121,132.792 176.817 L 132.737 168.737 132.239 168.666 C 131.632 168.581,130.743 169.392,129.164 171.474 C 128.549 172.284,127.794 173.232,127.486 173.579 C 127.178 173.926,126.440 174.803,125.847 175.526 C 125.254 176.250,124.665 176.842,124.537 176.842 C 124.305 176.842,122.643 174.926,120.336 172.000 C 118.104 169.167,116.917 168.206,116.351 168.772 M144.737 168.914 C 141.898 169.857,140.947 170.998,140.947 173.465 C 140.947 176.128,142.103 177.264,146.920 179.337 C 147.719 179.680,148.030 179.941,148.133 180.353 C 148.560 182.052,145.928 182.391,144.033 180.882 C 143.641 180.571,143.208 180.233,143.071 180.133 C 142.682 179.848,140.421 181.626,140.421 182.216 C 140.421 184.794,146.770 186.600,150.008 184.944 C 154.451 182.672,153.346 177.523,147.949 175.348 C 145.345 174.298,144.662 173.498,145.731 172.749 C 146.587 172.150,147.149 172.290,148.905 173.540 C 149.517 173.976,150.081 173.788,151.343 172.726 C 153.575 170.848,148.218 167.758,144.737 168.914 M215.347 168.924 C 205.224 171.845,206.978 185.574,217.474 185.574 C 220.218 185.574,221.527 185.148,223.048 183.757 C 224.958 182.012,225.071 181.621,223.962 180.594 C 222.245 179.001,222.034 178.974,220.869 180.182 C 218.026 183.132,213.345 181.573,213.092 177.592 C 212.801 173.024,217.612 171.019,221.013 174.292 C 221.546 174.805,222.025 175.105,222.171 175.017 C 223.286 174.351,224.842 173.188,224.842 173.020 C 224.842 170.507,218.839 167.917,215.347 168.924 M255.509 168.772 C 255.432 168.849,255.368 172.541,255.368 176.975 C 255.368 186.271,255.155 185.474,257.645 185.474 C 259.575 185.474,259.538 185.551,259.617 181.434 C 259.708 176.707,259.328 176.694,264.316 181.587 C 268.837 186.021,269.318 186.340,269.887 185.277 C 270.150 184.787,270.187 169.718,269.927 169.307 C 269.801 169.110,269.216 169.052,267.772 169.097 L 265.789 169.158 265.684 172.947 C 265.618 175.317,265.500 176.717,265.368 176.684 C 265.253 176.655,263.562 175.099,261.612 173.225 C 256.861 168.660,256.144 168.137,255.509 168.772 M283.368 169.179 C 277.056 171.327,275.378 178.615,280.120 183.292 C 284.859 187.968,293.570 185.455,294.879 179.033 C 296.248 172.322,289.959 166.938,283.368 169.179 M325.640 169.174 C 321.438 170.527,319.013 174.471,319.771 178.717 C 321.022 185.717,330.392 188.111,335.276 182.678 C 341.179 176.112,334.250 166.402,325.640 169.174 M350.883 168.849 C 340.709 171.413,342.268 185.462,352.737 185.559 C 356.260 185.592,358.452 184.609,360.325 182.155 L 361.053 181.203 361.053 178.714 C 361.053 175.578,361.296 175.740,356.716 175.828 C 352.784 175.904,352.849 175.874,352.848 177.579 C 352.848 179.536,352.865 179.554,354.812 179.623 C 357.574 179.721,357.150 181.074,354.163 181.694 C 351.830 182.178,349.846 181.262,348.919 179.272 C 346.669 174.439,352.115 170.522,356.248 173.999 C 357.090 174.707,357.249 174.678,358.612 173.567 C 360.070 172.380,360.076 172.093,358.670 170.811 C 356.827 169.130,353.297 168.240,350.883 168.849 M36.632 169.249 C 36.632 169.424,39.544 174.895,41.235 177.895 C 41.875 179.032,41.887 179.105,41.891 181.932 C 41.896 185.463,41.902 185.474,44.105 185.474 C 46.307 185.474,46.316 185.459,46.316 181.963 C 46.316 178.804,46.305 178.842,48.246 175.519 C 50.046 172.438,51.574 169.385,51.403 169.213 C 51.306 169.116,50.287 169.064,49.139 169.097 L 47.053 169.158 45.740 171.579 C 44.106 174.595,44.030 174.605,42.699 172.011 C 41.046 168.790,41.389 169.053,38.837 169.053 C 37.615 169.053,36.632 169.140,36.632 169.249 M75.708 169.383 C 75.500 169.925,75.560 171.992,75.797 172.435 C 75.991 172.798,76.255 172.842,78.211 172.842 C 81.042 172.842,80.842 172.341,80.842 179.437 C 80.842 186.023,80.657 185.474,82.873 185.474 C 85.212 185.474,85.053 185.936,85.053 179.163 C 85.053 172.362,84.793 172.987,87.684 172.842 L 89.789 172.737 89.789 170.947 L 89.789 169.158 82.813 169.102 C 76.589 169.053,75.823 169.083,75.708 169.383 M96.986 169.190 C 96.713 169.463,96.818 184.944,97.095 185.221 C 97.389 185.516,107.710 185.584,108.167 185.295 C 108.363 185.170,108.422 184.625,108.377 183.350 L 108.316 181.579 104.947 181.523 C 101.217 181.461,101.053 181.401,101.053 180.082 C 101.053 178.771,101.111 178.737,103.351 178.737 C 106.022 178.737,106.146 178.645,106.063 176.732 L 106.000 175.263 103.729 175.158 C 101.352 175.048,101.059 174.921,101.059 174.000 C 101.059 173.020,101.274 172.953,104.781 172.842 L 108.105 172.737 108.105 170.947 L 108.105 169.158 102.617 169.102 C 99.599 169.071,97.065 169.110,96.986 169.190 M169.391 169.386 C 169.184 169.926,169.245 171.993,169.481 172.435 C 169.673 172.793,169.937 172.842,171.674 172.842 C 174.601 172.842,174.316 172.182,174.316 178.955 C 174.316 185.855,174.187 185.474,176.526 185.474 C 178.866 185.474,178.737 185.855,178.737 178.955 C 178.737 172.171,178.437 172.842,181.466 172.842 C 183.820 172.842,183.781 172.876,183.787 170.807 C 183.792 168.900,184.425 169.053,176.526 169.053 C 170.331 169.053,169.504 169.091,169.391 169.386 M190.670 169.190 C 190.397 169.463,190.502 184.944,190.779 185.221 C 191.077 185.519,201.397 185.583,201.859 185.289 C 202.228 185.056,202.419 182.794,202.132 182.058 L 201.909 181.484 198.496 181.426 L 195.082 181.368 194.925 180.778 C 194.838 180.453,194.820 179.861,194.885 179.462 L 195.002 178.737 197.160 178.737 C 199.770 178.737,199.833 178.687,199.747 176.703 L 199.684 175.263 197.438 175.158 C 194.929 175.040,195.049 175.085,194.856 174.184 C 194.597 172.978,194.969 172.842,198.537 172.842 C 202.164 172.842,201.969 172.979,201.853 170.520 L 201.789 169.158 196.302 169.102 C 193.283 169.071,190.749 169.110,190.670 169.190 M232.561 169.193 C 232.484 169.270,232.421 172.867,232.421 177.186 C 232.421 186.243,232.209 185.474,234.708 185.474 C 236.820 185.474,236.842 185.437,236.842 181.992 C 236.842 178.591,236.701 178.737,239.971 178.737 C 243.043 178.737,242.947 178.626,242.947 182.183 C 242.947 185.494,242.935 185.474,244.949 185.474 C 247.352 185.474,247.172 186.175,247.108 177.053 L 247.053 169.158 245.053 169.158 L 243.053 169.158 242.947 171.789 C 242.813 175.157,243.008 174.947,240.005 174.947 C 236.597 174.947,236.842 175.160,236.842 172.205 C 236.842 168.864,236.974 169.053,234.644 169.053 C 233.576 169.053,232.639 169.116,232.561 169.193 M302.674 169.186 C 302.430 169.429,302.498 184.605,302.744 185.066 C 303.047 185.631,313.020 185.704,313.484 185.145 C 313.848 184.707,313.988 182.777,313.708 182.053 L 313.484 181.474 310.333 181.474 C 308.044 181.474,307.136 181.402,307.012 181.211 C 306.919 181.066,306.795 178.295,306.737 175.053 L 306.632 169.158 304.727 169.098 C 303.679 169.065,302.755 169.104,302.674 169.186 M366.737 169.380 C 366.737 169.693,367.558 171.285,368.523 172.842 C 368.774 173.247,369.659 174.870,370.490 176.447 L 372.000 179.316 372.000 181.987 C 372.000 185.471,372.002 185.474,374.098 185.474 C 376.427 185.474,376.421 185.482,376.421 181.979 L 376.421 179.146 377.794 176.494 C 378.549 175.036,379.342 173.594,379.556 173.290 C 380.333 172.187,381.619 169.498,381.478 169.270 C 381.384 169.118,380.611 169.058,379.253 169.097 L 377.172 169.158 375.780 171.579 C 374.118 174.469,374.054 174.484,372.918 172.248 C 372.428 171.284,371.779 170.171,371.476 169.774 L 370.926 169.053 368.831 169.053 C 367.078 169.053,366.737 169.106,366.737 169.380 M288.378 173.275 C 292.543 175.356,291.000 181.569,286.316 181.577 C 283.377 181.582,281.904 180.106,281.904 177.158 C 281.904 173.525,285.074 171.624,288.378 173.275 M330.421 173.132 C 332.177 173.960,333.053 175.300,333.053 177.158 C 333.053 181.111,328.165 183.235,325.470 180.453 C 321.865 176.732,325.780 170.944,330.421 173.132 " stroke="none" fill="#f6f5f7" fill-rule="evenodd"></path><path id="path1" d="M161.923 35.519 C 161.267 35.645,161.379 36.377,162.385 38.526 C 162.791 39.395,163.610 41.337,164.205 42.842 C 165.514 46.155,165.768 46.771,167.157 50.000 C 167.754 51.389,168.508 53.237,168.832 54.105 C 169.156 54.974,169.679 56.242,169.993 56.924 C 170.308 57.605,171.254 59.879,172.097 61.976 C 173.590 65.692,174.939 68.920,175.890 71.053 C 176.148 71.632,176.529 72.626,176.735 73.263 C 176.942 73.900,177.382 74.963,177.714 75.626 C 178.045 76.288,178.316 76.927,178.316 77.046 C 178.316 77.164,178.658 77.996,179.077 78.894 C 179.495 79.792,180.054 81.142,180.318 81.895 C 181.000 83.834,182.901 88.249,183.169 88.514 C 183.449 88.791,183.605 88.533,184.753 85.895 C 185.231 84.795,186.061 83.024,186.597 81.960 C 187.132 80.895,187.900 79.238,188.302 78.276 C 188.704 77.313,189.616 75.342,190.328 73.895 C 191.039 72.447,191.806 70.799,192.031 70.232 C 192.255 69.665,193.247 67.486,194.234 65.390 C 195.222 63.294,196.306 60.987,196.644 60.263 C 196.983 59.539,197.385 58.947,197.538 58.947 C 197.835 58.947,198.989 61.137,200.424 64.421 C 200.905 65.521,201.712 67.274,202.219 68.316 C 203.071 70.069,204.021 72.144,208.098 81.158 C 208.936 83.011,209.934 85.142,210.316 85.895 C 210.698 86.647,211.695 88.779,212.532 90.632 C 213.369 92.484,214.928 95.895,215.997 98.211 C 217.065 100.526,218.628 103.937,219.468 105.789 C 220.309 107.642,221.519 110.247,222.158 111.579 C 222.797 112.911,223.671 114.852,224.101 115.894 C 224.531 116.935,225.159 118.309,225.496 118.946 C 226.210 120.295,228.000 124.173,228.000 124.371 C 228.000 124.446,228.909 126.453,230.021 128.832 C 232.442 134.013,235.537 140.723,236.227 142.286 C 236.543 143.002,236.906 143.483,237.218 143.602 C 237.903 143.862,370.536 143.844,370.947 143.583 C 371.391 143.303,371.432 36.190,370.989 35.747 C 370.724 35.482,163.305 35.255,161.923 35.519 M242.077 64.493 C 242.256 64.709,242.035 65.341,241.139 67.177 C 238.528 72.525,236.171 77.367,234.334 81.158 C 224.038 102.401,223.967 102.533,223.415 101.421 C 222.569 99.718,220.650 95.564,219.890 93.789 C 219.394 92.632,218.552 90.791,218.020 89.699 C 216.829 87.256,216.806 87.667,218.316 84.509 C 219.011 83.057,219.579 81.828,219.579 81.779 C 219.579 81.729,220.440 79.864,221.493 77.634 C 222.546 75.404,223.553 73.247,223.731 72.842 C 225.121 69.672,227.507 64.880,227.844 64.579 C 228.395 64.087,241.674 64.007,242.077 64.493 M290.274 64.463 C 290.458 64.647,290.526 66.264,290.526 70.421 C 290.526 74.578,290.458 76.195,290.274 76.379 C 290.084 76.569,287.299 76.632,279.033 76.632 C 269.208 76.632,268.032 76.667,267.917 76.965 C 267.847 77.148,267.789 78.608,267.789 80.211 C 267.789 81.813,267.847 83.273,267.917 83.456 C 268.031 83.752,268.913 83.789,275.692 83.789 C 282.362 83.789,283.381 83.832,283.669 84.120 C 284.069 84.520,284.170 94.237,283.782 94.961 C 283.573 95.353,283.261 95.368,275.786 95.368 L 268.008 95.368 267.892 95.842 C 267.828 96.103,267.802 98.116,267.835 100.316 L 267.895 104.316 279.349 104.370 C 287.382 104.408,290.888 104.495,291.086 104.659 C 291.605 105.090,291.488 116.342,290.961 116.624 C 290.690 116.770,284.553 116.842,272.535 116.842 L 254.516 116.842 254.311 116.302 C 254.181 115.962,254.105 106.414,254.105 90.526 C 254.105 74.639,254.181 65.091,254.311 64.751 L 254.516 64.211 272.268 64.211 C 285.795 64.211,290.081 64.271,290.274 64.463 M322.858 64.432 C 330.751 65.190,336.478 68.842,339.243 74.881 C 342.543 82.083,340.787 90.477,334.920 95.549 C 332.645 97.516,332.649 97.398,334.745 100.316 C 335.659 101.589,337.169 103.721,338.099 105.053 C 339.029 106.384,340.643 108.658,341.686 110.105 C 345.504 115.405,345.920 116.031,345.852 116.380 C 345.790 116.705,345.170 116.742,338.839 116.793 C 331.140 116.855,331.157 116.857,330.223 115.519 C 329.883 115.031,328.833 113.589,327.890 112.316 C 326.948 111.042,325.710 109.354,325.141 108.565 C 324.571 107.775,323.743 106.638,323.300 106.038 C 322.858 105.438,322.268 104.598,321.990 104.170 C 319.701 100.654,319.226 100.360,316.000 100.463 L 314.000 100.526 313.895 108.336 C 313.811 114.527,313.730 116.219,313.501 116.494 C 313.129 116.942,300.694 117.031,300.253 116.589 C 299.886 116.223,299.886 64.830,300.253 64.463 C 300.580 64.136,319.509 64.110,322.858 64.432 M313.990 76.477 C 313.934 76.623,313.913 79.347,313.944 82.529 L 314.000 88.316 318.033 88.373 C 323.570 88.451,324.963 87.932,326.252 85.306 C 327.952 81.845,326.090 77.314,322.609 76.437 C 321.279 76.102,314.121 76.135,313.990 76.477 " stroke="none" fill="#ec062e" fill-rule="evenodd"></path><path id="path2" d="M0.000 105.263 L 0.000 210.526 200.000 210.526 L 400.000 210.526 400.000 105.263 L 400.000 0.000 200.000 0.000 L 0.000 0.000 0.000 105.263 M381.853 24.884 C 382.121 25.152,382.244 153.498,381.977 154.193 C 381.756 154.770,18.843 154.696,18.534 154.119 C 18.229 153.549,18.229 25.609,18.534 25.039 C 18.804 24.533,381.347 24.379,381.853 24.884 M29.404 35.719 C 29.057 36.066,29.248 143.528,29.596 143.662 C 30.032 143.829,221.758 143.829,222.193 143.662 C 222.678 143.476,222.612 143.142,221.774 141.542 C 221.360 140.752,220.781 139.537,220.488 138.842 C 220.195 138.147,219.055 135.684,217.955 133.368 C 213.784 124.591,212.624 122.131,211.405 119.474 C 209.425 115.161,207.021 110.032,205.583 107.053 C 204.856 105.547,204.085 103.889,203.869 103.368 C 203.654 102.847,202.964 101.379,202.335 100.105 C 201.707 98.832,200.659 96.605,200.007 95.158 C 198.306 91.386,197.922 90.700,197.555 90.776 C 197.140 90.862,196.825 91.483,188.014 109.579 C 183.201 119.463,182.037 121.742,181.754 121.836 C 181.520 121.914,181.154 121.128,180.309 118.737 C 180.043 117.984,179.237 116.042,178.519 114.421 C 177.801 112.800,176.901 110.621,176.518 109.579 C 175.839 107.733,174.921 105.516,173.683 102.737 C 173.348 101.984,172.494 99.906,171.784 98.119 C 171.075 96.331,170.309 94.504,170.082 94.059 C 169.854 93.613,169.396 92.518,169.063 91.624 C 168.729 90.731,167.916 88.721,167.254 87.158 C 166.593 85.595,165.649 83.321,165.156 82.105 C 163.439 77.867,162.788 76.308,162.255 75.158 C 161.960 74.521,161.056 72.342,160.246 70.316 C 158.895 66.935,157.980 64.715,152.700 52.000 C 151.714 49.626,150.296 46.168,149.550 44.316 C 148.121 40.770,147.022 38.210,146.252 36.632 L 145.789 35.684 87.667 35.631 C 55.700 35.602,29.481 35.642,29.404 35.719 M136.526 63.458 C 146.819 65.727,155.386 73.546,157.647 82.737 C 158.497 86.194,158.614 87.079,158.614 90.105 C 158.614 93.135,158.496 94.029,157.645 97.474 C 155.459 106.322,147.040 114.220,137.474 116.398 C 117.092 121.039,99.346 105.439,102.391 85.556 C 103.483 78.426,109.210 70.055,114.990 67.142 C 115.488 66.891,116.416 66.367,117.053 65.977 C 118.495 65.095,122.641 63.686,124.679 63.385 C 125.521 63.261,126.447 63.118,126.737 63.068 C 127.937 62.859,135.107 63.145,136.526 63.458 M80.632 64.013 C 91.243 65.720,97.391 72.299,97.338 81.895 C 97.297 89.246,93.724 94.773,86.938 97.979 C 83.884 99.422,81.634 99.809,75.510 99.945 L 70.494 100.057 70.300 100.568 C 70.193 100.850,70.105 104.439,70.105 108.545 L 70.105 116.010 69.541 116.225 C 68.391 116.662,57.066 116.382,56.720 115.907 C 56.343 115.392,56.264 64.897,56.639 64.197 C 56.893 63.722,77.828 63.562,80.632 64.013 M128.479 75.583 C 119.018 76.591,113.856 85.947,117.183 96.056 C 120.293 105.507,134.774 107.738,141.303 99.773 C 143.837 96.682,144.531 94.572,144.517 90.000 C 144.489 80.584,137.819 74.589,128.479 75.583 M70.307 76.340 C 69.935 77.317,70.131 87.542,70.526 87.806 C 71.108 88.196,79.112 87.932,80.161 87.489 C 83.626 86.026,84.503 80.512,81.744 77.545 C 80.368 76.066,79.869 75.944,74.790 75.843 L 70.528 75.758 70.307 76.340 M27.884 169.453 C 29.959 170.474,30.581 171.692,29.526 172.668 C 28.307 173.796,27.689 174.019,27.043 173.562 C 25.693 172.605,25.338 172.423,24.813 172.422 C 23.174 172.419,23.004 173.901,24.559 174.627 C 25.004 174.834,26.072 175.335,26.932 175.740 C 30.607 177.469,31.775 180.366,29.983 183.306 C 28.147 186.321,22.446 186.497,19.526 183.630 C 18.230 182.356,18.250 182.004,19.686 180.895 C 21.079 179.819,21.145 179.814,22.000 180.694 C 23.833 182.581,27.189 182.026,26.113 180.014 C 26.001 179.805,25.361 179.413,24.691 179.144 C 23.359 178.608,21.477 177.632,20.597 177.019 C 19.782 176.452,18.947 174.649,18.947 173.456 C 18.947 169.610,23.794 167.439,27.884 169.453 M66.671 169.439 C 68.997 170.616,69.526 171.760,68.226 172.804 C 66.749 173.991,66.442 174.049,65.592 173.303 C 64.654 172.479,63.561 172.247,62.841 172.718 C 61.760 173.427,62.371 174.291,64.573 175.167 C 68.650 176.788,70.062 178.645,69.593 181.768 C 68.989 185.799,61.739 187.088,58.482 183.744 C 57.150 182.376,57.166 181.973,58.598 180.868 C 59.954 179.822,59.864 179.828,60.854 180.723 C 62.207 181.945,64.089 182.246,64.957 181.378 C 65.817 180.518,65.405 180.080,62.313 178.566 C 58.763 176.828,57.897 175.830,57.897 173.474 C 57.897 169.586,62.645 167.403,66.671 169.439 M118.199 169.526 C 118.690 170.018,119.652 171.132,120.336 172.000 C 122.643 174.926,124.305 176.842,124.537 176.842 C 124.665 176.842,125.254 176.250,125.847 175.526 C 126.440 174.803,127.178 173.926,127.486 173.579 C 127.794 173.232,128.549 172.284,129.164 171.474 C 130.743 169.392,131.632 168.581,132.239 168.666 L 132.737 168.737 132.792 176.817 C 132.856 186.121,133.002 185.474,130.831 185.474 C 128.654 185.474,128.632 185.439,128.632 182.103 C 128.632 178.730,128.582 178.700,126.566 180.823 C 124.379 183.128,124.133 183.079,121.391 179.784 C 120.569 178.797,120.455 179.129,120.436 182.556 C 120.423 184.780,120.366 185.239,120.088 185.346 C 119.481 185.579,116.726 185.484,116.463 185.221 C 116.189 184.946,116.080 169.043,116.351 168.772 C 116.698 168.425,117.375 168.701,118.199 169.526 M149.556 169.348 C 151.783 170.437,152.485 171.765,151.343 172.726 C 150.081 173.788,149.517 173.976,148.905 173.540 C 147.149 172.290,146.587 172.150,145.731 172.749 C 144.662 173.498,145.345 174.298,147.949 175.348 C 153.346 177.523,154.451 182.672,150.008 184.944 C 146.770 186.600,140.421 184.794,140.421 182.216 C 140.421 181.626,142.682 179.848,143.071 180.133 C 143.208 180.233,143.641 180.571,144.033 180.882 C 145.928 182.391,148.560 182.052,148.133 180.353 C 148.030 179.941,147.719 179.680,146.920 179.337 C 142.103 177.264,140.947 176.128,140.947 173.465 C 140.947 169.584,145.545 167.385,149.556 169.348 M221.064 169.443 C 222.967 170.242,224.842 172.017,224.842 173.020 C 224.842 173.188,223.286 174.351,222.171 175.017 C 222.025 175.105,221.546 174.805,221.013 174.292 C 217.612 171.019,212.801 173.024,213.092 177.592 C 213.345 181.573,218.026 183.132,220.869 180.182 C 222.034 178.974,222.245 179.001,223.962 180.594 C 225.071 181.621,224.958 182.012,223.048 183.757 C 218.731 187.702,210.449 185.232,208.937 179.549 C 207.045 172.440,214.132 166.534,221.064 169.443 M257.320 169.225 C 257.731 169.551,259.662 171.351,261.612 173.225 C 263.562 175.099,265.253 176.655,265.368 176.684 C 265.500 176.717,265.618 175.317,265.684 172.947 L 265.789 169.158 267.772 169.097 C 269.216 169.052,269.801 169.110,269.927 169.307 C 270.187 169.718,270.150 184.787,269.887 185.277 C 269.318 186.340,268.837 186.021,264.316 181.587 C 259.328 176.694,259.708 176.707,259.617 181.434 C 259.538 185.551,259.575 185.474,257.645 185.474 C 255.155 185.474,255.368 186.271,255.368 176.975 C 255.368 172.541,255.432 168.849,255.509 168.772 C 255.817 168.464,256.613 168.663,257.320 169.225 M288.393 168.937 C 293.271 170.236,295.854 174.255,294.879 179.033 C 293.570 185.455,284.859 187.968,280.120 183.292 C 273.785 177.043,279.778 166.644,288.393 168.937 M331.083 169.076 C 337.396 171.022,339.530 177.946,335.276 182.678 C 330.392 188.111,321.022 185.717,319.771 178.717 C 318.642 172.399,324.809 167.143,331.083 169.076 M356.196 169.298 C 357.686 169.839,359.789 171.549,359.789 172.220 C 359.789 172.635,357.628 174.526,357.155 174.526 C 357.001 174.526,356.593 174.289,356.248 173.999 C 352.115 170.522,346.669 174.439,348.919 179.272 C 349.846 181.262,351.830 182.178,354.163 181.694 C 357.150 181.074,357.574 179.721,354.812 179.623 C 352.865 179.554,352.848 179.536,352.848 177.579 C 352.849 175.874,352.784 175.904,356.716 175.828 C 361.296 175.740,361.053 175.578,361.053 178.714 L 361.053 181.203 360.325 182.155 C 355.846 188.022,345.978 186.219,344.308 179.228 C 342.654 172.302,349.261 166.784,356.196 169.298 M41.361 169.538 C 41.536 169.804,42.138 170.918,42.699 172.011 C 44.030 174.605,44.106 174.595,45.740 171.579 L 47.053 169.158 49.139 169.097 C 50.287 169.064,51.306 169.116,51.403 169.213 C 51.574 169.385,50.046 172.438,48.246 175.519 C 46.305 178.842,46.316 178.804,46.316 181.963 C 46.316 185.459,46.307 185.474,44.105 185.474 C 41.902 185.474,41.896 185.463,41.891 181.932 C 41.887 179.105,41.875 179.032,41.235 177.895 C 39.544 174.895,36.632 169.424,36.632 169.249 C 36.632 168.758,41.026 169.027,41.361 169.538 M89.789 170.947 L 89.789 172.737 87.684 172.842 C 84.793 172.987,85.053 172.362,85.053 179.163 C 85.053 185.936,85.212 185.474,82.873 185.474 C 80.657 185.474,80.842 186.023,80.842 179.437 C 80.842 172.341,81.042 172.842,78.211 172.842 C 75.659 172.842,75.579 172.782,75.579 170.873 C 75.579 168.878,74.920 169.040,82.813 169.102 L 89.789 169.158 89.789 170.947 M108.105 170.947 L 108.105 172.737 104.781 172.842 C 101.274 172.953,101.059 173.020,101.059 174.000 C 101.059 174.921,101.352 175.048,103.729 175.158 L 106.000 175.263 106.063 176.732 C 106.146 178.645,106.022 178.737,103.351 178.737 C 101.111 178.737,101.053 178.771,101.053 180.082 C 101.053 181.401,101.217 181.461,104.947 181.523 L 108.316 181.579 108.377 183.350 C 108.422 184.625,108.363 185.170,108.167 185.295 C 107.710 185.584,97.389 185.516,97.095 185.221 C 96.818 184.944,96.713 169.463,96.986 169.190 C 97.065 169.110,99.599 169.071,102.617 169.102 L 108.105 169.158 108.105 170.947 M183.662 169.386 C 183.825 169.812,183.822 171.751,183.657 172.368 C 183.536 172.819,183.428 172.842,181.466 172.842 C 178.437 172.842,178.737 172.171,178.737 178.955 C 178.737 185.855,178.866 185.474,176.526 185.474 C 174.187 185.474,174.316 185.855,174.316 178.955 C 174.316 172.182,174.601 172.842,171.674 172.842 C 169.371 172.842,169.263 172.754,169.263 170.873 C 169.263 168.888,168.608 169.053,176.526 169.053 C 182.722 169.053,183.549 169.091,183.662 169.386 M201.853 170.520 C 201.969 172.979,202.164 172.842,198.537 172.842 C 194.969 172.842,194.597 172.978,194.856 174.184 C 195.049 175.085,194.929 175.040,197.438 175.158 L 199.684 175.263 199.747 176.703 C 199.833 178.687,199.770 178.737,197.160 178.737 L 195.002 178.737 194.885 179.462 C 194.820 179.861,194.838 180.453,194.925 180.778 L 195.082 181.368 198.496 181.426 L 201.909 181.484 202.132 182.058 C 202.419 182.794,202.228 185.056,201.859 185.289 C 201.397 185.583,191.077 185.519,190.779 185.221 C 190.502 184.944,190.397 169.463,190.670 169.190 C 190.749 169.110,193.283 169.071,196.302 169.102 L 201.789 169.158 201.853 170.520 M236.714 169.386 C 236.785 169.569,236.842 170.838,236.842 172.205 C 236.842 175.160,236.597 174.947,240.005 174.947 C 243.008 174.947,242.813 175.157,242.947 171.789 L 243.053 169.158 245.053 169.158 L 247.053 169.158 247.108 177.053 C 247.172 186.175,247.352 185.474,244.949 185.474 C 242.935 185.474,242.947 185.494,242.947 182.183 C 242.947 178.626,243.043 178.737,239.971 178.737 C 236.701 178.737,236.842 178.591,236.842 181.992 C 236.842 185.437,236.820 185.474,234.708 185.474 C 232.209 185.474,232.421 186.243,232.421 177.186 C 232.421 172.867,232.484 169.270,232.561 169.193 C 232.885 168.869,236.582 169.041,236.714 169.386 M306.737 175.053 C 306.795 178.295,306.919 181.066,307.012 181.211 C 307.136 181.402,308.044 181.474,310.333 181.474 L 313.484 181.474 313.708 182.053 C 313.988 182.777,313.848 184.707,313.484 185.145 C 313.020 185.704,303.047 185.631,302.744 185.066 C 302.498 184.605,302.430 169.429,302.674 169.186 C 302.755 169.104,303.679 169.065,304.727 169.098 L 306.632 169.158 306.737 175.053 M371.476 169.774 C 371.779 170.171,372.428 171.284,372.918 172.248 C 374.054 174.484,374.118 174.469,375.780 171.579 L 377.172 169.158 379.253 169.097 C 380.611 169.058,381.384 169.118,381.478 169.270 C 381.619 169.498,380.333 172.187,379.556 173.290 C 379.342 173.594,378.549 175.036,377.794 176.494 L 376.421 179.146 376.421 181.979 C 376.421 185.482,376.427 185.474,374.098 185.474 C 372.002 185.474,372.000 185.471,372.000 181.987 L 372.000 179.316 370.490 176.447 C 369.659 174.870,368.774 173.247,368.523 172.842 C 366.213 169.115,366.218 169.053,368.831 169.053 L 370.926 169.053 371.476 169.774 M284.737 172.886 C 281.674 173.956,280.855 178.303,283.266 180.688 C 284.958 182.363,288.674 181.817,289.988 179.701 C 292.279 176.012,288.781 171.472,284.737 172.886 M326.632 173.130 C 323.685 174.514,323.126 178.034,325.470 180.453 C 327.600 182.652,331.513 181.816,332.727 178.901 C 334.302 175.119,330.355 171.381,326.632 173.130 " stroke="none" fill="#041c74" fill-rule="evenodd"></path></g></svg>