<svg id="svg" version="1.1" xmlns="http://www.w3.org/2000/svg" xmlns:xlink="http://www.w3.org/1999/xlink" width="400" height="137.65586034912718" viewBox="0, 0, 400,137.65586034912718"><g id="svgg"><path id="path0" d="M155.365 8.619 C 154.572 8.771,154.690 9.457,155.983 12.208 C 156.783 13.910,158.190 17.352,159.148 19.948 C 159.424 20.699,159.854 21.712,160.102 22.198 C 160.542 23.063,161.661 25.747,162.695 28.417 C 162.979 29.150,164.021 31.662,165.011 34.000 C 166.001 36.337,167.045 38.887,167.330 39.667 C 167.616 40.446,168.177 41.833,168.578 42.750 C 170.198 46.459,171.318 49.149,171.735 50.333 C 171.976 51.021,172.505 52.333,172.910 53.250 C 174.383 56.589,174.885 57.784,175.535 59.500 C 176.833 62.927,178.800 67.385,179.084 67.544 C 179.436 67.741,179.489 67.667,180.186 66.000 C 180.718 64.728,181.388 63.288,183.250 59.417 C 183.823 58.225,184.571 56.575,184.912 55.750 C 185.253 54.925,185.634 54.063,185.759 53.833 C 186.258 52.920,188.537 48.059,189.067 46.779 C 189.377 46.030,190.380 43.874,191.295 41.988 C 192.210 40.101,193.013 38.376,193.078 38.154 C 193.412 37.020,194.722 34.667,195.018 34.667 C 195.354 34.667,196.283 36.324,197.262 38.667 C 197.910 40.219,198.497 41.497,200.172 45.000 C 200.895 46.512,201.983 48.875,202.590 50.250 C 203.197 51.625,204.018 53.393,204.415 54.179 C 204.812 54.965,205.861 57.246,206.747 59.247 C 207.632 61.248,208.722 63.605,209.169 64.484 C 209.616 65.364,210.286 66.777,210.658 67.625 C 212.255 71.270,212.676 72.192,213.391 73.615 C 213.806 74.442,214.680 76.349,215.332 77.851 C 215.984 79.354,217.076 81.715,217.759 83.098 C 218.442 84.481,219.000 85.661,219.000 85.720 C 219.000 85.779,219.291 86.447,219.646 87.205 C 220.001 87.963,220.565 89.245,220.900 90.054 C 221.235 90.863,221.621 91.697,221.759 91.907 C 222.067 92.376,223.969 96.528,224.843 98.636 C 225.197 99.490,225.641 100.438,225.829 100.743 C 226.210 101.359,227.829 104.861,228.915 107.417 C 229.304 108.333,230.351 110.583,231.242 112.417 C 232.133 114.250,232.974 116.078,233.111 116.479 C 233.337 117.140,233.869 118.282,236.341 123.417 C 236.783 124.333,237.340 125.608,237.579 126.248 C 238.173 127.834,238.748 128.772,239.203 128.894 C 240.430 129.222,387.836 128.998,388.167 128.667 C 388.609 128.225,388.705 9.510,388.263 8.907 C 388.041 8.603,156.940 8.317,155.365 8.619 M244.621 40.854 C 244.902 41.136,245.228 40.415,240.039 51.000 C 238.938 53.246,237.410 56.396,236.643 58.000 C 235.877 59.604,234.963 61.442,234.612 62.083 C 234.261 62.725,233.790 63.700,233.564 64.250 C 233.175 65.201,232.205 67.188,226.913 77.883 C 224.409 82.941,224.367 82.991,223.714 81.666 C 222.626 79.456,221.040 76.049,220.418 74.583 C 219.605 72.665,219.180 71.726,217.818 68.829 C 217.278 67.680,216.823 66.555,216.807 66.329 C 216.785 66.007,218.265 62.648,219.161 60.984 C 219.240 60.837,219.605 60.012,219.972 59.150 C 220.339 58.288,221.350 56.120,222.219 54.333 C 223.088 52.546,224.137 50.296,224.550 49.333 C 225.739 46.561,228.468 41.104,228.780 40.875 C 229.167 40.591,244.338 40.571,244.621 40.854 M298.405 40.929 C 298.860 41.384,298.793 53.540,298.333 54.000 C 298.006 54.327,297.778 54.333,285.867 54.333 C 276.652 54.333,273.685 54.381,273.533 54.533 C 273.195 54.872,273.254 62.101,273.597 62.232 C 273.742 62.288,277.609 62.333,282.191 62.333 C 287.615 62.333,290.634 62.394,290.844 62.506 C 291.321 62.761,291.350 74.574,290.875 74.935 C 290.642 75.112,288.900 75.157,282.158 75.161 C 275.834 75.165,273.683 75.217,273.533 75.367 C 273.387 75.513,273.333 76.830,273.333 80.250 C 273.333 83.670,273.387 84.987,273.533 85.133 C 273.685 85.285,276.780 85.333,286.444 85.333 C 298.840 85.333,299.159 85.341,299.327 85.656 C 299.651 86.260,299.555 98.330,299.224 98.695 C 298.780 99.186,258.602 99.169,258.339 98.678 C 258.074 98.181,258.101 41.133,258.367 40.867 C 258.711 40.522,298.059 40.583,298.405 40.929 M337.333 41.063 C 339.496 41.492,340.632 41.834,342.000 42.468 C 342.688 42.786,343.791 43.293,344.452 43.594 C 349.045 45.687,353.222 51.239,354.263 56.636 C 355.655 63.849,353.177 71.069,347.760 75.578 C 345.520 77.444,345.497 77.506,346.552 78.940 C 346.947 79.477,347.555 80.367,347.903 80.917 C 348.251 81.467,348.822 82.261,349.172 82.682 C 349.522 83.103,350.463 84.415,351.263 85.598 C 352.063 86.782,353.025 88.135,353.400 88.605 C 353.776 89.075,354.855 90.575,355.797 91.938 C 356.740 93.301,358.038 95.129,358.681 96.000 C 361.108 99.285,361.728 99.000,352.154 99.000 C 343.050 99.000,343.895 99.177,342.292 96.929 C 341.634 96.006,340.793 94.865,340.423 94.395 C 340.053 93.924,339.262 92.848,338.667 92.002 C 338.071 91.156,337.152 89.891,336.625 89.190 C 336.099 88.490,335.239 87.317,334.716 86.583 C 330.224 80.289,330.928 80.847,327.464 80.839 C 325.042 80.834,324.832 80.858,324.673 81.156 C 324.560 81.366,324.500 84.404,324.500 89.869 C 324.500 97.193,324.467 98.306,324.241 98.630 L 323.981 99.000 316.774 99.000 C 311.390 99.000,309.516 98.949,309.367 98.800 C 309.152 98.585,309.058 41.476,309.272 40.920 C 309.431 40.504,335.177 40.635,337.333 41.063 M324.778 54.079 C 324.384 54.473,324.350 67.002,324.742 67.327 C 324.922 67.476,326.153 67.513,329.534 67.469 L 334.083 67.411 335.374 66.857 C 340.719 64.563,340.190 56.035,334.592 54.220 C 333.291 53.799,325.175 53.682,324.778 54.079 " stroke="none" fill="#ec062e" fill-rule="evenodd"></path><path id="path1" d="M7.908 8.736 C 7.397 9.109,7.396 128.390,7.907 128.763 C 8.316 129.063,221.952 129.127,222.511 128.827 C 222.988 128.572,222.934 128.372,221.750 126.025 C 221.154 124.843,220.667 123.826,220.667 123.764 C 220.667 123.702,220.323 122.923,219.904 122.034 C 219.484 121.144,218.966 120.004,218.752 119.500 C 218.538 118.996,218.100 118.096,217.779 117.500 C 217.457 116.904,216.448 114.763,215.536 112.742 C 214.625 110.720,213.603 108.547,213.265 107.911 C 212.928 107.276,212.063 105.442,211.344 103.836 C 210.624 102.231,209.442 99.717,208.719 98.250 C 207.995 96.783,207.240 95.208,207.041 94.750 C 205.946 92.223,205.555 91.374,204.506 89.250 C 203.872 87.967,203.006 86.129,202.581 85.167 C 202.155 84.204,201.259 82.292,200.588 80.917 C 198.786 77.222,197.864 75.242,197.251 73.750 C 195.535 69.574,195.019 69.277,193.830 71.781 C 193.360 72.772,192.748 74.033,192.471 74.583 C 189.871 79.742,189.116 81.284,188.820 82.039 C 188.632 82.522,188.297 83.225,188.078 83.603 C 187.521 84.559,184.500 90.623,184.500 90.785 C 184.500 90.857,183.851 92.192,183.059 93.750 C 181.145 97.515,180.435 98.964,180.159 99.667 C 179.789 100.608,177.792 104.405,177.596 104.539 C 177.497 104.606,177.367 104.663,177.307 104.664 C 177.182 104.667,176.345 102.677,175.917 101.356 C 175.758 100.865,174.955 98.915,174.134 97.023 C 173.313 95.131,172.345 92.796,171.984 91.833 C 171.622 90.871,171.095 89.558,170.813 88.917 C 170.530 88.275,169.976 86.954,169.581 85.981 C 169.185 85.008,168.677 83.846,168.450 83.398 C 168.223 82.950,167.811 81.946,167.534 81.167 C 167.258 80.387,166.755 79.112,166.418 78.333 C 166.081 77.554,165.622 76.435,165.399 75.846 C 165.176 75.258,164.933 74.695,164.860 74.596 C 164.680 74.355,163.872 72.415,162.771 69.583 C 162.273 68.300,161.403 66.200,160.839 64.917 C 159.925 62.839,159.373 61.494,158.137 58.333 C 157.940 57.829,157.603 57.028,157.389 56.552 C 157.175 56.077,157.000 55.641,157.000 55.584 C 157.000 55.527,156.521 54.416,155.935 53.115 C 155.349 51.814,154.817 50.563,154.751 50.333 C 154.554 49.643,152.588 44.885,151.273 41.917 C 150.948 41.183,150.011 38.896,149.191 36.833 C 148.371 34.771,147.394 32.408,147.020 31.583 C 146.358 30.125,145.709 28.526,144.249 24.750 C 143.859 23.742,143.343 22.548,143.102 22.098 C 142.861 21.647,142.373 20.522,142.018 19.598 C 140.921 16.741,140.010 14.468,139.473 13.250 C 139.190 12.608,138.662 11.408,138.300 10.583 C 137.937 9.758,137.532 8.971,137.398 8.833 C 137.038 8.464,8.413 8.367,7.908 8.736 M124.535 39.340 C 126.739 39.562,128.452 39.944,130.917 40.762 C 134.425 41.926,138.929 44.496,141.307 46.690 C 144.663 49.788,144.390 49.475,147.164 53.407 C 147.807 54.318,148.333 55.122,148.333 55.193 C 148.333 55.264,148.622 55.913,148.974 56.634 C 149.649 58.015,149.949 58.758,150.164 59.583 C 150.236 59.858,150.459 60.683,150.661 61.417 C 154.094 73.916,149.184 86.936,138.333 94.107 C 135.635 95.890,135.309 96.070,133.450 96.799 C 123.898 100.548,115.570 100.443,106.083 96.454 C 104.863 95.941,102.080 94.243,100.833 93.252 C 100.237 92.778,99.385 92.134,98.940 91.820 C 97.276 90.650,93.791 86.324,92.365 83.659 C 84.667 69.269,89.917 50.599,103.667 43.474 C 104.446 43.070,105.383 42.551,105.750 42.321 C 107.131 41.455,110.473 40.285,113.083 39.753 C 115.850 39.189,121.146 38.998,124.535 39.340 M65.167 40.316 C 74.886 42.017,81.402 47.652,83.108 55.833 C 84.987 64.840,80.539 74.032,72.476 77.805 C 68.283 79.767,66.204 80.143,58.784 80.285 C 53.835 80.379,53.643 80.395,53.409 80.728 C 53.205 81.020,53.167 82.403,53.167 89.528 L 53.167 97.981 52.796 98.241 C 52.476 98.465,51.507 98.500,45.583 98.500 C 39.660 98.500,38.691 98.465,38.370 98.241 L 38.000 97.981 38.000 69.250 L 38.000 40.519 38.375 40.252 C 38.843 39.919,63.233 39.977,65.167 40.316 M117.750 53.176 C 107.011 54.626,101.559 65.453,105.825 76.856 C 106.880 79.676,110.157 82.863,113.286 84.112 C 116.376 85.345,116.602 85.387,120.167 85.396 L 123.417 85.404 125.250 84.768 C 133.359 81.955,137.267 75.155,135.921 66.199 C 135.341 62.332,132.740 57.855,130.167 56.294 C 129.846 56.099,129.310 55.729,128.977 55.471 C 126.655 53.674,121.645 52.650,117.750 53.176 M53.833 53.449 C 53.187 53.680,53.167 53.881,53.167 60.167 C 53.167 65.171,53.209 66.328,53.403 66.593 C 53.689 66.985,60.440 67.164,62.558 66.836 C 69.760 65.718,69.849 54.852,62.667 53.568 C 61.437 53.349,54.381 53.253,53.833 53.449 " stroke="none" fill="#061d75" fill-rule="evenodd"></path><path id="path2" d="M0.000 68.750 L 0.000 137.500 200.000 137.500 L 400.000 137.500 400.000 68.750 L 400.000 0.000 200.000 0.000 L 0.000 0.000 0.000 68.750 M137.398 8.833 C 137.532 8.971,137.937 9.758,138.300 10.583 C 138.662 11.408,139.190 12.608,139.473 13.250 C 140.010 14.468,140.921 16.741,142.018 19.598 C 142.373 20.522,142.861 21.647,143.102 22.098 C 143.343 22.548,143.859 23.742,144.249 24.750 C 145.709 28.526,146.358 30.125,147.020 31.583 C 147.394 32.408,148.371 34.771,149.191 36.833 C 150.011 38.896,150.948 41.183,151.273 41.917 C 152.588 44.885,154.554 49.643,154.751 50.333 C 154.817 50.563,155.349 51.814,155.935 53.115 C 156.521 54.416,157.000 55.527,157.000 55.584 C 157.000 55.641,157.175 56.077,157.389 56.552 C 157.603 57.028,157.940 57.829,158.137 58.333 C 159.373 61.494,159.925 62.839,160.839 64.917 C 161.403 66.200,162.273 68.300,162.771 69.583 C 163.872 72.415,164.680 74.355,164.860 74.596 C 164.933 74.695,165.176 75.258,165.399 75.846 C 165.622 76.435,166.081 77.554,166.418 78.333 C 166.755 79.112,167.258 80.387,167.534 81.167 C 167.811 81.946,168.223 82.950,168.450 83.398 C 168.677 83.846,169.185 85.008,169.581 85.981 C 169.976 86.954,170.530 88.275,170.813 88.917 C 171.095 89.558,171.622 90.871,171.984 91.833 C 172.345 92.796,173.313 95.131,174.134 97.023 C 174.955 98.915,175.758 100.865,175.917 101.356 C 176.345 102.677,177.182 104.667,177.307 104.664 C 177.367 104.663,177.497 104.606,177.596 104.539 C 177.792 104.405,179.789 100.608,180.159 99.667 C 180.435 98.964,181.145 97.515,183.059 93.750 C 183.851 92.192,184.500 90.857,184.500 90.785 C 184.500 90.623,187.521 84.559,188.078 83.603 C 188.297 83.225,188.632 82.522,188.820 82.039 C 189.116 81.284,189.871 79.742,192.471 74.583 C 192.748 74.033,193.360 72.772,193.830 71.781 C 195.019 69.277,195.535 69.574,197.251 73.750 C 197.864 75.242,198.786 77.222,200.588 80.917 C 201.259 82.292,202.155 84.204,202.581 85.167 C 203.006 86.129,203.872 87.967,204.506 89.250 C 205.555 91.374,205.946 92.223,207.041 94.750 C 207.240 95.208,207.995 96.783,208.719 98.250 C 209.442 99.717,210.624 102.231,211.344 103.836 C 212.063 105.442,212.928 107.276,213.265 107.911 C 213.603 108.547,214.625 110.720,215.536 112.742 C 216.448 114.763,217.457 116.904,217.779 117.500 C 218.100 118.096,218.538 118.996,218.752 119.500 C 218.966 120.004,219.484 121.144,219.904 122.034 C 220.323 122.923,220.667 123.702,220.667 123.764 C 220.667 123.826,221.154 124.843,221.750 126.025 C 222.934 128.372,222.988 128.572,222.511 128.827 C 221.952 129.127,8.316 129.063,7.907 128.763 C 7.396 128.390,7.397 9.109,7.908 8.736 C 8.413 8.367,137.038 8.464,137.398 8.833 M388.263 8.907 C 388.705 9.510,388.609 128.225,388.167 128.667 C 387.836 128.998,240.430 129.222,239.203 128.894 C 238.748 128.772,238.173 127.834,237.579 126.248 C 237.340 125.608,236.783 124.333,236.341 123.417 C 233.869 118.282,233.337 117.140,233.111 116.479 C 232.974 116.078,232.133 114.250,231.242 112.417 C 230.351 110.583,229.304 108.333,228.915 107.417 C 227.829 104.861,226.210 101.359,225.829 100.743 C 225.641 100.438,225.197 99.490,224.843 98.636 C 223.969 96.528,222.067 92.376,221.759 91.907 C 221.621 91.697,221.235 90.863,220.900 90.054 C 220.565 89.245,220.001 87.963,219.646 87.205 C 219.291 86.447,219.000 85.779,219.000 85.720 C 219.000 85.661,218.442 84.481,217.759 83.098 C 217.076 81.715,215.984 79.354,215.332 77.851 C 214.680 76.349,213.806 74.442,213.391 73.615 C 212.676 72.192,212.255 71.270,210.658 67.625 C 210.286 66.777,209.616 65.364,209.169 64.484 C 208.722 63.605,207.632 61.248,206.747 59.247 C 205.861 57.246,204.812 54.965,204.415 54.179 C 204.018 53.393,203.197 51.625,202.590 50.250 C 201.983 48.875,200.895 46.512,200.172 45.000 C 198.497 41.497,197.910 40.219,197.262 38.667 C 196.283 36.324,195.354 34.667,195.018 34.667 C 194.722 34.667,193.412 37.020,193.078 38.154 C 193.013 38.376,192.210 40.101,191.295 41.988 C 190.380 43.874,189.377 46.030,189.067 46.779 C 188.537 48.059,186.258 52.920,185.759 53.833 C 185.634 54.063,185.253 54.925,184.912 55.750 C 184.571 56.575,183.823 58.225,183.250 59.417 C 181.388 63.288,180.718 64.728,180.186 66.000 C 179.489 67.667,179.436 67.741,179.084 67.544 C 178.800 67.385,176.833 62.927,175.535 59.500 C 174.885 57.784,174.383 56.589,172.910 53.250 C 172.505 52.333,171.976 51.021,171.735 50.333 C 171.318 49.149,170.198 46.459,168.578 42.750 C 168.177 41.833,167.616 40.446,167.330 39.667 C 167.045 38.887,166.001 36.337,165.011 34.000 C 164.021 31.662,162.979 29.150,162.695 28.417 C 161.661 25.747,160.542 23.063,160.102 22.198 C 159.854 21.712,159.424 20.699,159.148 19.948 C 158.190 17.352,156.783 13.910,155.983 12.208 C 154.690 9.457,154.572 8.771,155.365 8.619 C 156.940 8.317,388.041 8.603,388.263 8.907 M115.750 39.346 C 113.443 39.579,111.656 39.990,109.167 40.859 C 107.208 41.543,106.523 41.836,105.750 42.321 C 105.383 42.551,104.446 43.070,103.667 43.474 C 89.917 50.599,84.667 69.269,92.365 83.659 C 93.791 86.324,97.276 90.650,98.940 91.820 C 99.385 92.134,100.237 92.778,100.833 93.252 C 102.080 94.243,104.863 95.941,106.083 96.454 C 115.570 100.443,123.898 100.548,133.450 96.799 C 135.309 96.070,135.635 95.890,138.333 94.107 C 149.184 86.936,154.094 73.916,150.661 61.417 C 150.459 60.683,150.236 59.858,150.164 59.583 C 149.949 58.758,149.649 58.015,148.974 56.634 C 148.622 55.913,148.333 55.264,148.333 55.193 C 148.333 55.122,147.807 54.318,147.164 53.407 C 144.390 49.475,144.663 49.788,141.307 46.690 C 138.033 43.669,132.527 40.928,127.417 39.776 C 124.872 39.202,119.227 38.994,115.750 39.346 M38.375 40.252 L 38.000 40.519 38.000 69.250 L 38.000 97.981 38.370 98.241 C 38.691 98.465,39.660 98.500,45.583 98.500 C 51.507 98.500,52.476 98.465,52.796 98.241 L 53.167 97.981 53.167 89.528 C 53.167 82.403,53.205 81.020,53.409 80.728 C 53.643 80.395,53.835 80.379,58.784 80.285 C 66.204 80.143,68.283 79.767,72.476 77.805 C 80.539 74.032,84.987 64.840,83.108 55.833 C 81.402 47.652,74.886 42.017,65.167 40.316 C 63.233 39.977,38.843 39.919,38.375 40.252 M228.780 40.875 C 228.468 41.104,225.739 46.561,224.550 49.333 C 224.137 50.296,223.088 52.546,222.219 54.333 C 221.350 56.120,220.339 58.288,219.972 59.150 C 219.605 60.012,219.240 60.837,219.161 60.984 C 218.265 62.648,216.785 66.007,216.807 66.329 C 216.823 66.555,217.278 67.680,217.818 68.829 C 219.180 71.726,219.605 72.665,220.418 74.583 C 221.040 76.049,222.626 79.456,223.714 81.666 C 224.367 82.991,224.409 82.941,226.913 77.883 C 232.205 67.188,233.175 65.201,233.564 64.250 C 233.790 63.700,234.261 62.725,234.612 62.083 C 234.963 61.442,235.877 59.604,236.643 58.000 C 237.410 56.396,238.938 53.246,240.039 51.000 C 245.228 40.415,244.902 41.136,244.621 40.854 C 244.338 40.571,229.167 40.591,228.780 40.875 M258.367 40.867 C 258.101 41.133,258.074 98.181,258.339 98.678 C 258.602 99.169,298.780 99.186,299.224 98.695 C 299.555 98.330,299.651 86.260,299.327 85.656 C 299.159 85.341,298.840 85.333,286.444 85.333 C 276.780 85.333,273.685 85.285,273.533 85.133 C 273.387 84.987,273.333 83.670,273.333 80.250 C 273.333 76.830,273.387 75.513,273.533 75.367 C 273.683 75.217,275.834 75.165,282.158 75.161 C 288.900 75.157,290.642 75.112,290.875 74.935 C 291.350 74.574,291.321 62.761,290.844 62.506 C 290.634 62.394,287.615 62.333,282.191 62.333 C 277.609 62.333,273.742 62.288,273.597 62.232 C 273.254 62.101,273.195 54.872,273.533 54.533 C 273.685 54.381,276.652 54.333,285.867 54.333 C 297.778 54.333,298.006 54.327,298.333 54.000 C 298.793 53.540,298.860 41.384,298.405 40.929 C 298.059 40.583,258.711 40.522,258.367 40.867 M309.272 40.920 C 309.058 41.476,309.152 98.585,309.367 98.800 C 309.516 98.949,311.390 99.000,316.774 99.000 L 323.981 99.000 324.241 98.630 C 324.467 98.306,324.500 97.193,324.500 89.869 C 324.500 84.404,324.560 81.366,324.673 81.156 C 324.832 80.858,325.042 80.834,327.464 80.839 C 330.501 80.846,330.492 80.843,331.609 82.310 C 332.400 83.348,332.792 83.888,334.716 86.583 C 335.239 87.317,336.099 88.490,336.625 89.190 C 337.152 89.891,338.071 91.156,338.667 92.002 C 339.262 92.848,340.053 93.924,340.423 94.395 C 340.793 94.865,341.634 96.006,342.292 96.929 C 343.895 99.177,343.050 99.000,352.154 99.000 C 361.728 99.000,361.108 99.285,358.681 96.000 C 358.038 95.129,356.740 93.301,355.797 91.938 C 354.855 90.575,353.776 89.075,353.400 88.605 C 353.025 88.135,352.063 86.782,351.263 85.598 C 350.463 84.415,349.522 83.103,349.172 82.682 C 348.822 82.261,348.251 81.467,347.903 80.917 C 347.555 80.367,346.947 79.477,346.552 78.940 C 345.497 77.506,345.520 77.444,347.760 75.578 C 353.177 71.069,355.655 63.849,354.263 56.636 C 353.222 51.239,349.045 45.687,344.452 43.594 C 343.791 43.293,342.688 42.786,342.000 42.468 C 340.632 41.834,339.496 41.492,337.333 41.063 C 335.177 40.635,309.431 40.504,309.272 40.920 M124.633 53.580 C 126.435 54.020,127.959 54.683,128.977 55.471 C 129.310 55.729,129.846 56.099,130.167 56.294 C 132.740 57.855,135.341 62.332,135.921 66.199 C 137.267 75.155,133.359 81.955,125.250 84.768 L 123.417 85.404 120.167 85.396 C 116.602 85.387,116.376 85.345,113.286 84.112 C 110.157 82.863,106.880 79.676,105.825 76.856 C 100.488 62.593,110.547 50.144,124.633 53.580 M62.667 53.568 C 65.246 54.029,66.882 55.446,67.607 57.847 C 68.625 61.214,67.157 65.139,64.428 66.346 C 62.717 67.102,53.919 67.300,53.403 66.593 C 53.209 66.328,53.167 65.171,53.167 60.167 C 53.167 53.881,53.187 53.680,53.833 53.449 C 54.381 53.253,61.437 53.349,62.667 53.568 M334.592 54.220 C 340.190 56.035,340.719 64.563,335.374 66.857 L 334.083 67.411 329.534 67.469 C 326.153 67.513,324.922 67.476,324.742 67.327 C 324.350 67.002,324.384 54.473,324.778 54.079 C 325.175 53.682,333.291 53.799,334.592 54.220 " stroke="none" fill="#fbfafa" fill-rule="evenodd"></path></g></svg>